<svg xmlns="http://www.w3.org/2000/svg" xmlns:xlink="http://www.w3.org/1999/xlink" viewBox="0 0 1024 700"><defs><style>.cls-1,.cls-13,.cls-58,.cls-69{fill:none;}.cls-2{isolation:isolate;}.cls-3{clip-path:url(#clip-path);}.cls-4{fill:#222;}.cls-5{fill:#1b9848;}.cls-6{fill:#bcbdbf;}.cls-7{fill:#1b85b4;}.cls-8{fill:#c9202f;}.cls-9{fill:#373738;}.cls-10,.cls-11{fill:#59595c;}.cls-10,.cls-12,.cls-13{stroke:#808083;}.cls-10,.cls-12,.cls-13,.cls-58,.cls-69{stroke-miterlimit:10;}.cls-10{stroke-width:2.1px;}.cls-12{fill:#221f1f;}.cls-12,.cls-13{stroke-width:2.24px;}.cls-14{fill:#fff;}.cls-15{fill:#009639;}.cls-16{opacity:0.2;}.cls-17{fill:#323232;}.cls-18{fill:#1c6333;}.cls-19{fill:#a4e171;}.cls-20{fill:#438515;}.cls-21{opacity:0.08;}.cls-21,.cls-44{mix-blend-mode:multiply;}.cls-22{fill:#c9c1c9;}.cls-23{fill:#d3cdd3;}.cls-24{fill:#eae6c2;}.cls-25{fill:#1d9cd3;}.cls-26{fill:#a8aec0;}.cls-27{fill:#bd7421;}.cls-28{fill:#62c026;}.cls-29{fill:#003d00;}.cls-30{fill:#438c15;}.cls-31{fill:#9dda71;}.cls-32{fill:#90c701;}.cls-33{fill:#1db14b;}.cls-34{fill:#666;}.cls-35{fill:#ffb34e;}.cls-36{fill:#8e5b43;}.cls-37{fill:#c8dced;}.cls-38{fill:#93b4d7;}.cls-39{fill:#ffb2a1;}.cls-40{fill:#e2b681;}.cls-41{fill:#b67421;}.cls-42{fill:#ebf0ff;}.cls-43{opacity:0.28;}.cls-44{opacity:0.4;}.cls-45{fill:#dfdfdf;}.cls-46{fill:#ffc33e;}.cls-47{fill:#0c5c86;}.cls-48{fill:#2f247e;}.cls-49{fill:#8595d0;}.cls-50{fill:#c5c5c5;}.cls-51{fill:#929292;}.cls-52{fill:#999;}.cls-53{fill:#ffcf51;}.cls-54{fill:#00527f;}.cls-55{fill:#ccc;}.cls-56{fill:#eebc1e;}.cls-57{fill:#884b2b;}.cls-58{stroke:#fff;stroke-linecap:round;}.cls-58,.cls-69{stroke-width:0.62px;}.cls-59{fill:#e08d2e;}.cls-60{fill:#e68566;}.cls-61{fill:#924c25;}.cls-62{fill:#e9a2a1;}.cls-63{fill:#69688e;opacity:0.32;}.cls-64{fill:#eac09f;}.cls-65{fill:#be5a3c;}.cls-66{fill:#003963;}.cls-67{fill:#2b7b81;}.cls-68{fill:#90d3d0;}.cls-69{stroke:#9dda71;}.cls-70{fill:#a56234;}</style><clipPath id="clip-path"><rect class="cls-1" width="1024" height="700"/></clipPath></defs><g class="cls-2"><g id="_1024x700" data-name="1024x700"><g class="cls-3"><rect class="cls-4" width="1024" height="700"/><polygon class="cls-5" points="277.04 294.7 275.13 295.81 266.47 290.81 268.38 289.7 277.04 294.7"/><polygon class="cls-6" points="282.6 224.52 280.06 226 268.6 219.38 271.14 217.91 282.6 224.52"/><polygon class="cls-7" points="216.99 260.83 210.67 264.5 204.31 260.83 206.84 260.83 207.48 261.2 213.82 261.2 214.46 260.83 216.99 260.83"/><polygon class="cls-5" points="151.51 264.55 149.6 265.67 140.94 260.67 142.86 259.56 151.51 264.55"/><polygon class="cls-6" points="127.22 93.28 115.83 99.9 113.28 98.42 124.67 91.8 127.22 93.28"/><polygon class="cls-8" points="53.4 161.1 52.42 161.66 49.28 161.66 49.3 163.48 48.31 164.05 47.32 163.48 47.31 161.66 44.17 161.66 43.19 161.09 44.17 160.52 47.31 160.52 47.3 158.7 48.27 158.14 49.26 158.71 49.27 160.53 52.41 160.53 53.4 161.1"/><polygon class="cls-8" points="136.55 244.64 134.2 246 123.61 239.88 125.95 238.52 136.55 244.64"/><polygon class="cls-8" points="185.28 179.01 184.3 179.58 181.16 179.58 181.17 181.4 180.19 181.97 179.2 181.4 179.19 179.58 176.05 179.58 175.06 179.01 176.04 178.44 179.18 178.44 179.17 176.62 180.15 176.05 181.14 176.62 181.15 178.44 184.29 178.44 185.28 179.01"/><g class="cls-2"><polygon class="cls-6" points="-10.76 19.33 33.39 44.82 32.44 45.37 -10.93 20.33 -10.76 19.33"/><polygon class="cls-8" points="45.19 51.63 43.27 52.74 34.61 47.74 36.52 46.63 45.19 51.63"/><polygon class="cls-6" points="36.45 -13.65 80.59 11.84 79.64 12.39 36.27 -12.65 36.45 -13.65"/><polygon class="cls-8" points="92.39 18.65 90.48 19.77 81.81 14.76 83.72 13.65 92.39 18.65"/><path class="cls-5" d="M21.52,52.85l-.95.56-33.9-19.57-1.13-.66-48.44-28-1.24-.72L-87.75-9.13a18.28,18.28,0,0,0-9-2.17h-20.31c-7.34,0-14.26-1.65-19.47-4.66l-65.85-38,.95-.55,65.86,38c4.95,2.86,11.52,4.44,18.5,4.44h20.33a20.31,20.31,0,0,1,10,2.39L-62.41,4.39l1.24.72,46.88,27.07,1.14.66Z"/><polygon class="cls-8" points="4.01 77.97 3.2 78.43 0.66 78.43 0.67 79.91 -0.13 80.37 -0.92 79.91 -0.93 78.43 -3.49 78.43 -4.29 77.97 -3.49 77.5 -0.95 77.5 -0.96 76.03 -0.15 75.56 0.65 76.03 0.66 77.5 3.21 77.5 4.01 77.97"/><path class="cls-6" d="M87.54-37.71c2.67,1.54,4.14,3.58,4.16,5.76l.07,11.77c0,4.05,2.75,7.85,7.71,10.71l1,.57,1.24.71L128.94,7.54l1.45.83,35,20.18-1,.56L130.21,9.37l-1.44-.83L100-8.08,98.74-8.8c-5.42-3.13-8.3-7.12-8.32-11.37l-.07-11.77c0-2-1.34-3.83-3.76-5.22l-11-6.36-1.51-.87L-21.73-99.7l.95-.55L75.79-44.5l1.51.87Z"/><path class="cls-7" d="M-10,44.89l91.6,52.88-.88.51L-10.84,45.4c-3.34-1.93-5-4.59-4.5-7.3l.88-4.92,1.13.66-.76,4.34C-14.55,40.67-13,43.12-10,44.89Z"/><polygon class="cls-8" points="93.27 103.48 91.52 104.5 83.61 99.93 85.35 98.91 93.27 103.48"/><path class="cls-7" d="M80.32,105.44l-.12.86-2.38-.13a14.79,14.79,0,0,1-6.6-1.78c-.22-.13-.44-.26-.64-.4l-1.14-.79-.43-.28a10.12,10.12,0,0,0-4.45-1.2L10.09,98.91a14,14,0,0,0-6.69,1.22L-1,102.29l-1-.66,4.44-2.16a16.15,16.15,0,0,1,7.78-1.41l54.46,2.8a12.16,12.16,0,0,1,5.39,1.46c.18.1.35.21.51.32l1.14.79a5.28,5.28,0,0,0,.56.35A12.74,12.74,0,0,0,78,105.32Z"/><path class="cls-8" d="M111.72,102.29,99,109.66c-4.8,2.78-11.45,4.15-18.22,3.73l-94.18-5.78a18.53,18.53,0,0,0-10.21,2.08l-5.91,3.44-1.27-.73,5.91-3.44a21.21,21.21,0,0,1,11.66-2.39L81,112.35c6.23.38,12.34-.86,16.76-3.43l12.68-7.37Z"/><polygon class="cls-8" points="122.48 113.67 116.16 117.34 116.17 115.87 116.8 115.5 116.77 111.84 116.13 111.47 116.12 109.99 122.48 113.67"/><path class="cls-6" d="M128,136.13l-1.28.74-12.9-7.44c-4.49-2.6-10.67-3.87-17-3.48L1.79,131.79A21.65,21.65,0,0,1-10,129.38l-65.5-37.82L-77,90.72-102,76.25l1.27-.75,24,13.88,1.44.83,66.55,38.42a18.93,18.93,0,0,0,10.34,2.12l95.06-5.84c6.85-.42,13.56,1,18.44,3.77Z"/><polygon class="cls-8" points="109.82 135.09 109.17 135.46 107.09 135.46 107.1 136.67 106.44 137.05 105.8 136.67 105.79 135.47 103.71 135.47 103.05 135.09 103.71 134.71 105.78 134.71 105.78 133.5 106.42 133.13 107.08 133.51 107.09 134.71 109.17 134.71 109.82 135.09"/><polygon class="cls-6" points="192.37 136.32 189.83 137.8 178.36 131.18 180.9 129.7 192.37 136.32"/><path class="cls-8" d="M94.89,130.22l-3.37,2.49a12.88,12.88,0,0,1-6.67,2.16l-51,3.51a12.61,12.61,0,0,1-6-1l-1.32-.6a13.45,13.45,0,0,0-6.36-1l-2.22.15-.17-.81L20,135a15.67,15.67,0,0,1,7.38,1.2l1.32.61a10.54,10.54,0,0,0,5,.81l51-3.51a11,11,0,0,0,5.74-1.87l3.37-2.49Z"/><polygon class="cls-8" points="55.99 152.53 53.65 153.89 43.06 147.77 45.39 146.41 55.99 152.53"/><path class="cls-8" d="M215.78,156.65l-1.17,6.59h-1.8l1.18-6.71c.64-3.61-1.54-7.14-6-9.71l-12.76-7.37,1.27-.74,12.76,7.37C214.1,148.87,216.48,152.73,215.78,156.65Z"/><path class="cls-7" d="M183.68,162.26l5.5,3.17-1.17.69-5.5-3.18a17.33,17.33,0,0,0-9.44-1.93l-86.93,5.34-1.2.05.17-1,.84,0,86.94-5.35A19.76,19.76,0,0,1,183.68,162.26Z"/><path class="cls-7" d="M70.43,162.22a27.24,27.24,0,0,0,12.88,3.23l-.17,1a29.54,29.54,0,0,1-13.88-3.51l-11.79-6.81,1.17-.68Z"/><polygon class="cls-6" points="203.59 173.76 201.26 175.11 190.66 169 193 167.64 203.59 173.76"/><polygon class="cls-8" points="53.66 163.79 80.82 179.48 80.67 180.37 79.71 180.43 52.28 164.59 53.66 163.79"/><path class="cls-5" d="M79.71,180.43l1-.06-.16.92L62.35,182.4a18.5,18.5,0,0,1-10.16-2.07L-27,134.6l1.11-.65L53.3,179.69a16.2,16.2,0,0,0,8.87,1.82Z"/><path class="cls-5" d="M159.89,179.73l11.1,6.41-1.1.64-11.1-6.41a26.76,26.76,0,0,0-14.61-3L83.62,181.1l-1.3.08.17-.92L144,176.48C149.9,176.12,155.69,177.31,159.89,179.73Z"/><polygon class="cls-8" points="245.43 187.76 244.77 188.14 242.69 188.14 242.7 189.34 242.06 189.72 241.4 189.34 241.39 188.13 239.32 188.14 238.66 187.76 239.31 187.38 241.39 187.38 241.38 186.18 242.03 185.8 242.69 186.18 242.69 187.38 244.77 187.38 245.43 187.76"/><path class="cls-8" d="M-41.95,136.38l91.59,52.88-.88.51-91.58-52.88a21.24,21.24,0,0,0-11.61-2.38l-31.12,1.91-1.13-.65,32.12-2A23,23,0,0,1-41.95,136.38Z"/><polygon class="cls-5" points="184.55 193.97 182.35 195.25 172.38 189.49 174.58 188.21 184.55 193.97"/><polygon class="cls-8" points="60.42 195.48 58.66 196.5 50.75 191.93 52.5 190.91 60.42 195.48"/><path class="cls-5" d="M235.09,206l68.31-4.2,1.64.95-69.77,4.29a21.43,21.43,0,0,1-11.68-2.39l-6-3.43,1.27-.74,5.94,3.43A18.79,18.79,0,0,0,235.09,206Z"/><path class="cls-5" d="M347.46,204l12.76,7.37-1.27.74-12.76-7.37c-4.45-2.57-10.56-3.82-16.8-3.44l-22.63,1.39-1.64-.94,24.08-1.48C336,199.83,342.63,201.2,347.46,204Z"/><polygon class="cls-8" points="104.22 214.81 103.43 215.27 100.88 215.27 100.89 216.74 100.09 217.21 99.29 216.75 99.28 215.26 96.73 215.27 95.93 214.81 96.73 214.34 99.28 214.34 99.27 212.87 100.06 212.41 100.86 212.87 100.87 214.34 103.42 214.35 104.22 214.81"/><path class="cls-8" d="M215.06,220.17l.63.36-1.27.74-1.68-1-4.26-2.47c-3.09-1.78-4.61-4.25-4.17-6.76l8.36-47h1.8l-8.37,47.17c-.39,2.2.94,4.36,3.64,5.92Z"/><polygon class="cls-8" points="308.05 220.56 307.4 220.94 305.32 220.94 305.34 222.14 304.68 222.52 304.02 222.14 304.03 220.94 301.95 220.94 301.29 220.56 301.94 220.18 304.01 220.19 304 218.98 304.66 218.6 305.32 218.98 305.33 220.19 307.39 220.18 308.05 220.56"/><path class="cls-8" d="M83.5,144.31c3.09,1.78,4.61,4.25,4.16,6.76l-2.55,14.37-.17,1-2.45,13.86-.17.92-.12.69L78,205.61c-.64,3.61,1.55,7.15,6,9.72l12.77,7.37-1.27.74-12.76-7.37c-4.83-2.79-7.21-6.65-6.51-10.57l4.29-24.21.16-.92.16-.89,2.32-13.07.17-1L85.88,151c.39-2.2-.94-4.35-3.65-5.92l-6-3.43,1.27-.74Z"/><path class="cls-6" d="M350.91,228.16l-1,.56L305,202.78l-1.64-.95-61.76-35.65a18.37,18.37,0,0,0-9-2.17h-20c-7.71,0-14.63-1.66-19.83-4.67l-65.86-38,1-.55,65.86,38c4.94,2.86,11.52,4.44,18.51,4.44h20.32a20.31,20.31,0,0,1,10,2.38l62.53,36.11,1.64.94Z"/><path class="cls-8" d="M237.45,224.07l13.8,8-1.37.8-13.81-8c-4.8-2.78-11.43-4.14-18.17-3.73l-54.38,3a23.15,23.15,0,0,1-12.65-2.6L82.2,181.87l.12-.69,1.3-.08,68.62,39.62A20.21,20.21,0,0,0,163.32,223l49.42-2.68,1.68,1,1.27-.74-.63-.36,2.62-.14C225,219.57,232.21,221.05,237.45,224.07Z"/><polygon class="cls-6" points="113.62 230.97 111.09 232.45 99.62 225.82 102.16 224.35 113.62 230.97"/><polygon class="cls-7" points="232.25 232.03 230.91 232.81 224.84 229.3 201.96 229.3 202.62 228.13 225.5 228.13 232.25 232.03"/><polygon class="cls-7" points="91.99 240.2 90.08 241.31 81.42 236.31 83.33 235.2 91.99 240.2"/><polygon class="cls-8" points="268.15 241.79 265.41 243.38 253 236.22 255.73 234.63 268.15 241.79"/><path class="cls-6" d="M264.24,254.38l5.49,3.17-1.17.68-5.49-3.17a17.24,17.24,0,0,0-9.44-1.94l-61.22,3.76L190.9,256l62.54-3.84A19.64,19.64,0,0,1,264.24,254.38Z"/><path class="cls-6" d="M166.5,257.51l22.67-1.39,1.51.87-24,1.47c-6.27.39-12.41-.87-16.87-3.44L138,248.21l1.17-.69,11.8,6.81C155.1,256.71,160.74,257.86,166.5,257.51Z"/><polygon class="cls-7" points="284.14 265.87 281.81 267.23 271.23 261.11 273.56 259.76 284.14 265.87"/><path class="cls-6" d="M176,275.08l24-1.48v.8l-23.85,1.46A25.21,25.21,0,0,1,162.38,273l-9.65-5.57,1-.56,9.65,5.57A23.23,23.23,0,0,0,176,275.08Z"/><path class="cls-8" d="M170.71,283.88,201.35,282a8.69,8.69,0,0,0,.46.77l-30.95,1.9a16.23,16.23,0,0,1-8.83-1.8L93.21,243.12l1-.56L163,282.3A14.16,14.16,0,0,0,170.71,283.88Z"/><polygon class="cls-8" points="154.06 100.87 155.97 99.76 164.63 104.76 162.72 105.87 154.06 100.87"/><path class="cls-8" d="M75.34,57.2,44.71,59.08l-.46-.77,30.94-1.9A16.14,16.14,0,0,1,84,58.22L152.85,98l-1,.56L83.06,58.78A14.16,14.16,0,0,0,75.34,57.2Z"/><path class="cls-8" d="M255.61,282.33l9.65,5.57-1,.56-9.65-5.57a23.25,23.25,0,0,0-12.69-2.6l-38.77,2.38c-.17-.25-.33-.5-.48-.76l39.11-2.4A25.21,25.21,0,0,1,255.61,282.33Z"/><path class="cls-6" d="M256,272.51l39.31,22.7-.17,1L255,273.07a14.18,14.18,0,0,0-7.72-1.58l-45.91,2.82v-.79l45.76-2.81A16.14,16.14,0,0,1,256,272.51Z"/><polygon class="cls-8" points="330.91 300.74 324.59 304.41 318.23 300.74 320.77 300.74 321.41 301.11 327.75 301.11 328.38 300.75 330.91 300.74"/><path class="cls-8" d="M299.5,234.28c4.84,2.8,7.21,6.65,6.51,10.56l-9.1,51.32-.18,1-.39,2.22c-.39,2.2.93,4.35,3.64,5.91l5.95,3.44-1.27.73L298.72,306c-3.1-1.79-4.61-4.25-4.17-6.76l.55-3.06.17-1,9-50.48c.65-3.6-1.54-7.14-6-9.71l-12.76-7.37,1.27-.74Z"/><polygon class="cls-9" points="296.91 296.16 324.78 312.25 323.82 312.81 296.73 297.17 296.91 296.16"/><path class="cls-6" d="M197.17,259.63c2.65,1.53,4.13,3.58,4.15,5.77l.05,8.12v.79l0,2.85a9.54,9.54,0,0,0,1.32,4.75c.15.26.31.51.48.76a17.63,17.63,0,0,0,5.91,5.2l30.32,17.41-.95.55-30.32-17.4a18.48,18.48,0,0,1-6.34-5.67,8.69,8.69,0,0,1-.46-.77,10,10,0,0,1-1.31-4.82l0-2.77v-.8l-.06-8.2c0-2-1.33-3.82-3.75-5.22L190.68,257l-1.51-.87L87.89,197.64l1-.55L190.9,256l1.51.87Z"/></g><polygon class="cls-7" points="143.75 145.23 141.2 146.71 129.62 140.02 132.17 138.54 143.75 145.23"/><polygon class="cls-8" points="182.16 139.29 175.84 142.97 175.84 141.49 176.46 141.13 176.44 137.46 175.81 137.1 175.8 135.62 182.16 139.29"/><path class="cls-7" d="M147.56,194.18a1.29,1.29,0,0,1,0,2.44,4.66,4.66,0,0,1-4.21,0,1.29,1.29,0,0,1,0-2.44A4.63,4.63,0,0,1,147.56,194.18Zm-3.23,1.88a2.51,2.51,0,0,0,2.28,0,.7.7,0,0,0,0-1.32,2.51,2.51,0,0,0-2.28,0c-.63.36-.63.95,0,1.32"/><path class="cls-7" d="M260.11,192.39a1.29,1.29,0,0,1,0,2.43,4.61,4.61,0,0,1-4.2,0c-1.17-.68-1.18-1.77,0-2.44A4.65,4.65,0,0,1,260.11,192.39Zm-3.24,1.88a2.54,2.54,0,0,0,2.28,0,.7.7,0,0,0,0-1.32,2.48,2.48,0,0,0-2.28,0c-.63.36-.63,1,0,1.32"/><path class="cls-7" d="M72.33,147.68a1.28,1.28,0,0,1,0,2.43,4.61,4.61,0,0,1-4.2,0c-1.17-.68-1.18-1.77,0-2.44A4.65,4.65,0,0,1,72.33,147.68Zm-3.24,1.88a2.54,2.54,0,0,0,2.28,0,.7.7,0,0,0,0-1.32,2.51,2.51,0,0,0-2.28,0c-.63.36-.62.95,0,1.32"/><path class="cls-7" d="M142.45,72.38a1.29,1.29,0,0,1,0,2.43,4.63,4.63,0,0,1-4.21,0,1.29,1.29,0,0,1,0-2.44A4.63,4.63,0,0,1,142.45,72.38Zm-3.24,1.88a2.54,2.54,0,0,0,2.28,0,.7.7,0,0,0,0-1.32,2.53,2.53,0,0,0-2.29,0c-.62.36-.62,1,0,1.32"/><path class="cls-5" d="M188.5,236.89a1.28,1.28,0,0,1,0,2.43,4.66,4.66,0,0,1-4.21,0,1.29,1.29,0,0,1,0-2.44A4.6,4.6,0,0,1,188.5,236.89Zm-3.24,1.88a2.54,2.54,0,0,0,2.28,0,.7.7,0,0,0,0-1.32,2.5,2.5,0,0,0-2.29,0c-.62.36-.62,1,0,1.32"/><path class="cls-5" d="M78.44,30.49a1.29,1.29,0,0,1,0,2.44,4.66,4.66,0,0,1-4.21,0,1.29,1.29,0,0,1,0-2.44A4.66,4.66,0,0,1,78.44,30.49Zm-3.23,1.88a2.54,2.54,0,0,0,2.28,0,.7.7,0,0,0,0-1.32,2.54,2.54,0,0,0-2.28,0,.7.7,0,0,0,0,1.32"/><path class="cls-5" d="M24.73,82.17a1.29,1.29,0,0,1,0,2.44,4.66,4.66,0,0,1-4.21,0,1.29,1.29,0,0,1,0-2.44A4.66,4.66,0,0,1,24.73,82.17Zm-3.24,1.88a2.54,2.54,0,0,0,2.28,0,.7.7,0,0,0,0-1.32,2.48,2.48,0,0,0-2.28,0,.7.7,0,0,0,0,1.32"/><polygon class="cls-5" points="154.67 118.42 153.73 118.97 146.56 114.83 147.5 114.28 154.67 118.42"/><path class="cls-5" d="M-53.64,187.6l-36.76,2.26-1.24-.71,37.86-2.33a16.16,16.16,0,0,1,8.83,1.81l68.83,39.73-1,.56-68.82-39.73A14,14,0,0,0-53.64,187.6Z"/><polygon class="cls-5" points="25.09 231.28 27 230.17 35.66 235.17 33.75 236.28 25.09 231.28"/><path class="cls-8" d="M-59.53,24.59l1-.55L10.26,63.77A14,14,0,0,0,18,65.35l38-2.06a25.13,25.13,0,0,1,13.79,2.82l9.65,5.57-1,.55-9.65-5.57a23.21,23.21,0,0,0-12.68-2.59l-38,2.07A16.19,16.19,0,0,1,9.3,64.33Z"/><polygon class="cls-5" points="80.6 74.59 82.51 73.48 91.17 78.48 89.25 79.59 80.6 74.59"/><polygon class="cls-6" points="108.5 -3.94 106.34 8.23 104.89 7.39 107.05 -4.78 108.5 -3.94"/><path class="cls-6" d="M107.56,24.59l5.25,3-1.11.65-5.25-3c-2.72-1.57-4.06-3.74-3.67-5.95l1.87-10.55,1.45.83-1.74,9.81C104,21.32,105.18,23.22,107.56,24.59Z"/><polygon class="cls-5" points="127.69 34.92 125.46 36.21 115.35 30.37 117.58 29.08 127.69 34.92"/><polygon class="cls-8" points="95.36 34.79 94.57 35.25 92.03 35.25 92.03 36.72 91.23 37.19 90.42 36.72 90.41 35.25 87.87 35.25 87.07 34.79 87.88 34.32 90.42 34.32 90.41 32.85 91.2 32.39 92 32.85 92.01 34.32 94.56 34.32 95.36 34.79"/><path class="cls-8" d="M51,7c2.67,1.54,4.15,3.59,4.16,5.77l.06,11.76c0,4.06,2.77,7.86,7.72,10.71L95,53.79l1.13.65L128.75,73.3l-1,.55L94.36,54.54l-1.13-.65L61.94,35.83c-5.2-3-8.09-7-8.11-11.26L53.76,12.8c0-2-1.35-3.82-3.76-5.22L-33.82-40.81-35-41.52-58.32-55l1-.55,24,13.88,1.23.71Z"/><polygon class="cls-8" points="32.81 19 32.02 19.46 29.46 19.47 29.47 20.94 28.68 21.4 27.88 20.94 27.87 19.47 25.32 19.46 24.52 19 25.31 18.54 27.86 18.54 27.86 17.06 28.65 16.6 29.45 17.06 29.47 18.54 32.02 18.54 32.81 19"/><polygon class="cls-8" points="325.94 317.48 323.69 318.79 313.5 312.91 315.75 311.61 325.94 317.48"/><polygon class="cls-9" points="372.1 201.43 369.13 203.16 355.65 195.37 358.62 193.65 372.1 201.43"/><polygon class="cls-8" points="369.56 225.13 368.8 225.57 366.35 225.57 366.36 226.98 365.6 227.42 364.84 226.98 364.83 225.57 362.39 225.57 361.61 225.12 362.37 224.68 364.81 224.68 364.81 223.26 365.56 222.82 366.34 223.27 366.35 224.69 368.79 224.69 369.56 225.13"/><path class="cls-10" d="M370,144.93h0a14,14,0,0,0-15-.59l-96.21,56a14.12,14.12,0,0,0-7,12.22v94.37a14,14,0,0,0,7.2,12.31h0l32.81,18.9,106.5-74,7-98.77Z"/><path class="cls-11" d="M385.87,157.44s4.39-60.18-16.14-58.8c-10.51-4.23-14.93-3.11-14.93-3.11a88.45,88.45,0,0,1,4.93,29.68v33.37Z"/><path class="cls-11" d="M296,216.78l-23.66-19.93V162.26s1.58-63.65,56.06-85.64c7.1-1.55,12.15-4.15,24.11,1.56,11.31,8,24.24,15.77,27.59,20.46-13-2.36-24-9-31-2.36s-47.29,13.89-50.29,91.2C298.8,218.25,300.3,214.29,296,216.78Z"/><path class="cls-12" d="M388.91,163.12V126.75c0-30.78-20.8-45-46.46-31.86h0C316.8,108.07,296,143.71,296,174.49v42.29l-4.31,2.48a14.15,14.15,0,0,0-7.05,12.23v94.4a14.12,14.12,0,0,0,21.18,12.22l96.73-55.9A14.12,14.12,0,0,0,409.6,270V175.59A14.1,14.1,0,0,0,388.91,163.12Zm-87.11,50.3V172c0-26.71,18.05-57.63,40.32-69.07s40.32.93,40.32,27.64v36.26Z"/><path class="cls-13" d="M356.27,80.77c-8.8-7.31-21.61-8.17-35.87-.85h0c-26.54,13.64-48.06,50.5-48.06,82.34v39.27"/><path class="cls-13" d="M355.1,98.8c3,5.55,4.63,12.67,4.63,21.13v29.63"/><line class="cls-13" x1="356.29" y1="80.76" x2="374.3" y2="93.68"/><line class="cls-13" x1="284.64" y1="325.89" x2="251.66" y2="306.89"/><line class="cls-13" x1="284.64" y1="316.39" x2="251.66" y2="297.4"/><line class="cls-13" x1="284.64" y1="306.89" x2="251.66" y2="287.9"/><line class="cls-13" x1="284.64" y1="297.4" x2="251.66" y2="278.41"/><line class="cls-13" x1="284.64" y1="287.9" x2="251.66" y2="268.91"/><line class="cls-13" x1="284.64" y1="278.41" x2="251.66" y2="259.41"/><line class="cls-13" x1="284.64" y1="268.91" x2="251.66" y2="249.92"/><line class="cls-13" x1="284.64" y1="259.41" x2="251.66" y2="240.42"/><line class="cls-13" x1="284.64" y1="249.92" x2="251.66" y2="230.93"/><line class="cls-13" x1="284.64" y1="240.42" x2="251.66" y2="221.43"/><path class="cls-14" d="M324.11,267.21c0-8.92,3.07-18.79,8.05-27.65l-4.3,2.67-.16-4.7c-5.94,10.63-9.59,22.45-9.59,33.15,0,10.53,2.29,17.26,8.07,21.09l4-2.48-.18-5.16C325.55,280.85,324.11,275.58,324.11,267.21Z"/><path class="cls-14" d="M370.71,266.88a47.38,47.38,0,0,1-17.56,16.89c-7.78,4.49-14.84,5.05-20.06,2.34l.18,4.89-4.14,2.57c6.27,3.16,14.72,2.45,24-2.92s16.1-12,22.35-22.21l-.15-4.44Z"/><path class="cls-14" d="M382.19,233.68c0,8.93-3.07,18.8-8.05,27.66l4.3-2.68.16,4.71c5.94-10.63,9.59-22.45,9.59-33.15,0-10.54-2.6-16.79-8.38-20.63l-4,2.49.18,5.15C380.43,220.52,382.19,225.32,382.19,233.68Z"/><path class="cls-14" d="M335.27,234.35a49,49,0,0,1,17.88-17.22c7.78-4.49,14.84-5,20.05-2.34L373,209.9l4.14-2.57c-6.27-3.17-14.72-2.45-24,2.92s-16.42,12.3-22.67,22.54l.16,4.44Z"/><polygon class="cls-15" points="443.88 307.92 443 308.43 426.62 298.98 427.51 298.46 443.88 307.92"/><polygon class="cls-15" points="443.53 319.55 442.65 320.07 416.4 304.92 417.29 304.4 443.53 319.55"/><polygon class="cls-15" points="411.94 301.31 411.05 301.83 404.28 297.91 405.17 297.4 411.94 301.31"/><polygon class="cls-15" points="422.16 295.37 421.27 295.89 414.49 291.98 415.38 291.46 422.16 295.37"/><polygon class="cls-15" points="411.32 312.79 410.44 313.31 394.06 303.85 394.95 303.33 411.32 312.79"/><path class="cls-15" d="M419,315.44a1.22,1.22,0,0,1,0,2.3,4.37,4.37,0,0,1-4,0,1.22,1.22,0,0,1,0-2.3A4.37,4.37,0,0,1,419,315.44Zm-3.06,1.78a2.41,2.41,0,0,0,2.16,0,.66.66,0,0,0,0-1.25,2.33,2.33,0,0,0-2.15,0c-.6.34-.59.9,0,1.25"/><path class="cls-15" d="M524,352.4a1.21,1.21,0,0,1,0,2.3,4.41,4.41,0,0,1-4,0c-1.1-.64-1.11-1.67,0-2.3A4.37,4.37,0,0,1,524,352.4Zm-3,1.77a2.39,2.39,0,0,0,2.15,0c.59-.34.59-.9,0-1.25a2.39,2.39,0,0,0-2.15,0,.66.66,0,0,0,0,1.25"/><polygon class="cls-15" points="533.23 347.66 532.34 348.18 516.73 339.16 517.61 338.65 533.23 347.66"/><polygon class="cls-15" points="525.81 378.89 524.92 379.4 518.14 375.49 519.03 374.98 525.81 378.89"/><path class="cls-15" d="M541.91,350.9a1.22,1.22,0,0,1,0,2.3,4.43,4.43,0,0,1-4,0c-1.1-.64-1.11-1.67,0-2.3A4.34,4.34,0,0,1,541.91,350.9Zm-3,1.77a2.39,2.39,0,0,0,2.15,0c.59-.34.59-.9,0-1.25a2.39,2.39,0,0,0-2.15,0,.66.66,0,0,0,0,1.25"/><path class="cls-15" d="M516.44,407.21c1.11.64,1.11,1.67,0,2.3a4.37,4.37,0,0,1-4,0,1.21,1.21,0,0,1,0-2.3A4.37,4.37,0,0,1,516.44,407.21ZM513.39,409a2.39,2.39,0,0,0,2.15,0,.66.66,0,0,0,0-1.25,2.39,2.39,0,0,0-2.15,0c-.6.34-.59.9,0,1.25"/><polygon class="cls-15" points="448.12 416.89 447.23 417.41 394.91 387.2 395.8 386.68 448.12 416.89"/><polygon class="cls-15" points="422.3 413.82 421.41 414.33 355.82 376.46 356.71 375.95 422.3 413.82"/><path class="cls-15" d="M367.91,345.13a1.22,1.22,0,0,1,0,2.3,4.37,4.37,0,0,1-4,0,1.21,1.21,0,0,1,0-2.3A4.34,4.34,0,0,1,367.91,345.13Zm-3.05,1.77a2.33,2.33,0,0,0,2.15,0,.65.65,0,0,0,0-1.24,2.33,2.33,0,0,0-2.15,0,.65.65,0,0,0,0,1.24"/><polygon class="cls-15" points="372.01 361.11 371.13 361.63 344.88 346.48 345.77 345.96 372.01 361.11"/><polygon class="cls-15" points="358.09 364.91 357.2 365.43 322.54 345.42 323.43 344.9 358.09 364.91"/><polygon class="cls-15" points="341.71 367.29 340.82 367.81 324.45 358.35 325.33 357.84 341.71 367.29"/><polygon class="cls-15" points="319.99 354.75 319.1 355.27 312.32 351.35 313.21 350.84 319.99 354.75"/><path class="cls-15" d="M351.1,370.93c1.1.64,1.11,1.67,0,2.3a4.37,4.37,0,0,1-4,0,1.22,1.22,0,0,1,0-2.31A4.43,4.43,0,0,1,351.1,370.93Zm-3.05,1.78a2.39,2.39,0,0,0,2.15,0,.66.66,0,0,0,0-1.25,2.39,2.39,0,0,0-2.15,0c-.59.34-.59.9,0,1.25"/><polygon class="cls-15" points="360.24 342.48 359.35 343 342.97 333.54 343.86 333.02 360.24 342.48"/><polygon class="cls-15" points="388.74 347.1 387.85 347.61 353.19 327.6 354.08 327.09 388.74 347.1"/><polygon class="cls-15" points="392.8 337.6 391.91 338.12 375.53 328.67 376.42 328.15 392.8 337.6"/><polygon class="cls-15" points="412.88 337.36 411.99 337.88 385.75 322.73 386.64 322.21 412.88 337.36"/><polygon class="cls-15" points="419.39 329.28 418.5 329.8 383.84 309.79 384.73 309.27 419.39 329.28"/><polygon class="cls-15" points="506.12 426.7 505.23 427.22 488.86 417.76 489.74 417.25 506.12 426.7"/><polygon class="cls-15" points="518.24 433.7 517.36 434.22 510.58 430.31 511.47 429.79 518.24 433.7"/><polygon class="cls-15" points="381.29 319.12 380.4 319.64 373.63 315.73 374.51 315.21 381.29 319.12"/><path class="cls-15" d="M458.61,421.17a1.22,1.22,0,0,1,0,2.3,4.37,4.37,0,0,1-4,0,1.21,1.21,0,0,1,0-2.3A4.34,4.34,0,0,1,458.61,421.17Zm-3.05,1.77a2.33,2.33,0,0,0,2.15,0c.59-.34.59-.9,0-1.25a2.36,2.36,0,0,0-2.15,0,.65.65,0,0,0,0,1.24"/><polygon class="cls-15" points="340.42 342.87 339.53 343.39 332.76 339.48 333.64 338.96 340.42 342.87"/><g class="cls-2"><polygon class="cls-15" points="465.01 331.95 464.12 332.46 448.5 323.45 449.39 322.93 465.01 331.95"/><polygon class="cls-15" points="509.65 334.05 508.76 334.56 424.71 286.04 425.6 285.52 509.65 334.05"/><path class="cls-15" d="M473.69,335.18c1.1.64,1.11,1.67,0,2.3a4.34,4.34,0,0,1-4,0,1.22,1.22,0,0,1,0-2.3A4.37,4.37,0,0,1,473.69,335.18ZM470.64,337a2.36,2.36,0,0,0,2.15,0,.66.66,0,0,0,0-1.25,2.33,2.33,0,0,0-2.15,0,.65.65,0,0,0,0,1.24"/><polygon class="cls-15" points="452.62 348.47 451.73 348.98 423.44 332.65 424.33 332.14 452.62 348.47"/><polygon class="cls-15" points="515.33 349.17 514.44 349.68 448.85 311.81 449.74 311.3 515.33 349.17"/><polygon class="cls-15" points="434.36 349.76 433.47 350.28 417.85 341.26 418.74 340.74 434.36 349.76"/><path class="cls-15" d="M443,353a1.22,1.22,0,0,1,0,2.31,4.43,4.43,0,0,1-4,0,1.22,1.22,0,0,1,0-2.31A4.43,4.43,0,0,1,443,353ZM440,354.77a2.39,2.39,0,0,0,2.15,0c.59-.35.58-.9,0-1.25a2.39,2.39,0,0,0-2.15,0c-.59.34-.59.9,0,1.25"/><polygon class="cls-15" points="489.61 357.99 488.73 358.51 423.14 320.64 424.02 320.12 489.61 357.99"/><polygon class="cls-15" points="421.96 366.28 421.08 366.8 392.79 350.47 393.68 349.95 421.96 366.28"/><polygon class="cls-15" points="533.43 371.45 532.54 371.97 480.22 341.76 481.11 341.24 533.43 371.45"/><polygon class="cls-15" points="513.68 371.89 512.8 372.4 496.42 362.95 497.31 362.43 513.68 371.89"/><polygon class="cls-15" points="393.49 373.51 392.6 374.03 376.98 365.01 377.87 364.49 393.49 373.51"/><path class="cls-15" d="M542.44,374.87a1.22,1.22,0,0,1,0,2.31,4.43,4.43,0,0,1-4,0,1.22,1.22,0,0,1,0-2.31A4.43,4.43,0,0,1,542.44,374.87Zm-3.05,1.78a2.39,2.39,0,0,0,2.15,0,.66.66,0,0,0,0-1.25,2.39,2.39,0,0,0-2.15,0c-.59.34-.59.9,0,1.25"/><path class="cls-15" d="M402.17,376.74a1.22,1.22,0,0,1,0,2.31,4.41,4.41,0,0,1-4,0,1.22,1.22,0,0,1,0-2.31A4.43,4.43,0,0,1,402.17,376.74Zm-3.05,1.78a2.39,2.39,0,0,0,2.15,0,.66.66,0,0,0,0-1.25,2.39,2.39,0,0,0-2.15,0,.66.66,0,0,0,0,1.25"/><polygon class="cls-15" points="509.43 381.27 508.54 381.78 456.21 351.57 457.1 351.06 509.43 381.27"/><polygon class="cls-15" points="555.15 383.99 554.26 384.51 547.48 380.6 548.37 380.08 555.15 383.99"/><polygon class="cls-15" points="391.31 384.09 390.42 384.61 362.14 368.28 363.03 367.76 391.31 384.09"/><path class="cls-15" d="M519.92,385.54a1.22,1.22,0,0,1,0,2.31,4.4,4.4,0,0,1-4,0,1.22,1.22,0,0,1,0-2.3A4.4,4.4,0,0,1,519.92,385.54Zm-3.06,1.78a2.39,2.39,0,0,0,2.15,0,.66.66,0,0,0,0-1.25,2.39,2.39,0,0,0-2.15,0c-.6.34-.59.9,0,1.25"/><polygon class="cls-15" points="577.4 396.84 576.51 397.36 560.14 387.9 561.03 387.38 577.4 396.84"/><polygon class="cls-15" points="541.14 399.58 540.25 400.09 524.63 391.08 525.52 390.56 541.14 399.58"/><polygon class="cls-15" points="507.77 403.98 506.88 404.5 397.77 341.5 398.65 340.99 507.77 403.98"/><polygon class="cls-15" points="572.67 405.94 571.78 406.46 530.28 382.5 531.17 381.98 572.67 405.94"/><polygon class="cls-15" points="645.17 412.29 644.28 412.81 548.44 357.47 549.33 356.96 645.17 412.29"/><polygon class="cls-15" points="480.68 412.01 479.79 412.53 372.05 350.33 372.94 349.81 480.68 412.01"/><polygon class="cls-15" points="585.57 413.39 584.68 413.91 577.91 410 578.79 409.48 585.57 413.39"/><polygon class="cls-15" points="546.3 414.39 545.41 414.91 449.57 359.57 450.45 359.06 546.3 414.39"/><path class="cls-15" d="M555.31,417.81a1.22,1.22,0,0,1,0,2.31,4.43,4.43,0,0,1-4,0,1.22,1.22,0,0,1,0-2.31A4.4,4.4,0,0,1,555.31,417.81Zm-3.06,1.78a2.39,2.39,0,0,0,2.15,0,.66.66,0,0,0,0-1.25,2.39,2.39,0,0,0-2.15,0,.66.66,0,0,0,0,1.25"/><polygon class="cls-15" points="522.29 424.2 521.4 424.72 425.56 369.39 426.45 368.87 522.29 424.2"/><polygon class="cls-15" points="568.02 426.93 567.13 427.45 560.35 423.54 561.24 423.02 568.02 426.93"/><polygon class="cls-15" points="677.94 431.21 677.05 431.73 648.77 415.4 649.66 414.88 677.94 431.21"/><path class="cls-15" d="M532.79,428.48a1.22,1.22,0,0,1,0,2.3,4.37,4.37,0,0,1-4,0,1.22,1.22,0,0,1,0-2.3A4.43,4.43,0,0,1,532.79,428.48Zm-3.06,1.78a2.39,2.39,0,0,0,2.15,0,.66.66,0,0,0,0-1.25,2.41,2.41,0,0,0-2.16,0c-.59.34-.58.9,0,1.25"/><polygon class="cls-15" points="479.84 435.2 478.95 435.72 463.33 426.7 464.22 426.19 479.84 435.2"/><polygon class="cls-15" points="505.43 438.14 504.54 438.66 408.7 383.32 409.59 382.81 505.43 438.14"/><polygon class="cls-15" points="590.27 439.78 589.38 440.3 573.01 430.84 573.89 430.32 590.27 439.78"/><polygon class="cls-15" points="554.01 442.52 553.12 443.03 537.5 434.01 538.39 433.5 554.01 442.52"/><path class="cls-15" d="M514.44,441.56a1.22,1.22,0,0,1,0,2.31,4.43,4.43,0,0,1-4,0,1.22,1.22,0,0,1,0-2.31A4.43,4.43,0,0,1,514.44,441.56Zm-3.06,1.78a2.41,2.41,0,0,0,2.16,0,.66.66,0,0,0,0-1.25,2.39,2.39,0,0,0-2.15,0c-.6.34-.59.9,0,1.25"/><polygon class="cls-15" points="527.15 450.68 526.26 451.2 519.49 447.29 520.37 446.77 527.15 450.68"/><polygon class="cls-15" points="717.54 454.08 716.66 454.59 682 434.58 682.89 434.07 717.54 454.08"/><polygon class="cls-15" points="565.1 460.76 564.22 461.27 522.71 437.31 523.6 436.8 565.1 460.76"/><polygon class="cls-15" points="549.4 463.53 548.51 464.05 532.14 454.59 533.03 454.07 549.4 463.53"/><polygon class="cls-15" points="739.15 466.55 738.26 467.07 721.89 457.61 722.78 457.1 739.15 466.55"/><polygon class="cls-15" points="578.01 468.21 577.12 468.72 570.34 464.81 571.23 464.29 578.01 468.21"/><polygon class="cls-15" points="724.24 469.78 723.35 470.3 527.68 357.33 528.57 356.81 724.24 469.78"/><polygon class="cls-15" points="751.8 473.86 750.92 474.37 744.14 470.46 745.03 469.94 751.8 473.86"/><polygon class="cls-15" points="735.03 476.01 734.15 476.53 727.37 472.62 728.26 472.1 735.03 476.01"/><polygon class="cls-15" points="744.29 493.19 743.4 493.71 581.74 400.38 582.63 399.86 744.29 493.19"/><polygon class="cls-15" points="646.02 495.64 645.13 496.16 561.08 447.63 561.97 447.11 646.02 495.64"/><polygon class="cls-15" points="710.76 497.51 709.87 498.02 548.22 404.69 549.1 404.18 710.76 497.51"/><polygon class="cls-15" points="673.15 499.47 672.26 499.98 520.12 412.14 521.01 411.63 673.15 499.47"/><polygon class="cls-15" points="782.66 503.51 781.77 504.02 740.27 480.06 741.16 479.55 782.66 503.51"/><polygon class="cls-15" points="683.95 505.7 683.06 506.22 676.28 502.3 677.17 501.79 683.95 505.7"/><polygon class="cls-15" points="767.87 506.81 766.98 507.32 751.36 498.31 752.25 497.79 767.87 506.81"/><polygon class="cls-15" points="667.63 508.12 666.74 508.63 650.37 499.18 651.25 498.66 667.63 508.12"/><polygon class="cls-15" points="732.37 509.98 731.48 510.5 715.1 501.04 715.99 500.53 732.37 509.98"/><polygon class="cls-15" points="713.64 511 712.75 511.52 594.62 443.32 595.5 442.8 713.64 511"/><polygon class="cls-15" points="680.28 515.42 679.39 515.94 672.62 512.02 673.51 511.51 680.28 515.42"/><polygon class="cls-15" points="745.02 517.29 744.13 517.8 737.36 513.89 738.24 513.37 745.02 517.29"/><path class="cls-15" d="M689.29,518.84c1.1.64,1.11,1.67,0,2.3a4.37,4.37,0,0,1-4,0,1.21,1.21,0,0,1,0-2.3A4.34,4.34,0,0,1,689.29,518.84Zm-3,1.78a2.39,2.39,0,0,0,2.15,0,.66.66,0,0,0,0-1.25,2.33,2.33,0,0,0-2.15,0c-.59.34-.59.9,0,1.25"/><path class="cls-15" d="M754,520.71a1.21,1.21,0,0,1,0,2.3,4.34,4.34,0,0,1-4,0,1.22,1.22,0,0,1,0-2.3A4.37,4.37,0,0,1,754,520.71Zm-3,1.77a2.33,2.33,0,0,0,2.15,0,.65.65,0,0,0,0-1.24,2.33,2.33,0,0,0-2.15,0,.65.65,0,0,0,0,1.24"/><polygon class="cls-15" points="737.22 524.62 736.33 525.14 720.71 516.12 721.6 515.6 737.22 524.62"/><polygon class="cls-15" points="785.26 528.68 784.37 529.2 588.7 416.23 589.59 415.71 785.26 528.68"/><polygon class="cls-15" points="622.07 529.15 621.18 529.67 425.51 416.7 426.4 416.19 622.07 529.15"/><path class="cls-15" d="M745.9,527.85a1.21,1.21,0,0,1,0,2.3,4.34,4.34,0,0,1-4,0,1.22,1.22,0,0,1,0-2.3A4.43,4.43,0,0,1,745.9,527.85Zm-3,1.77a2.36,2.36,0,0,0,2.15,0,.66.66,0,0,0,0-1.25,2.39,2.39,0,0,0-2.15,0,.65.65,0,0,0,0,1.24"/><polygon class="cls-15" points="853.16 532.37 852.27 532.89 765.86 483 766.75 482.48 853.16 532.37"/><polygon class="cls-15" points="731.58 533.2 730.69 533.71 689.19 509.75 690.08 509.24 731.58 533.2"/><polygon class="cls-15" points="649.46 533.13 648.57 533.65 486.91 440.32 487.8 439.8 649.46 533.13"/><path class="cls-15" d="M792.89,531.31a1.22,1.22,0,0,1,0,2.3,4.37,4.37,0,0,1-4,0,1.21,1.21,0,0,1,0-2.3A4.34,4.34,0,0,1,792.89,531.31Zm-3,1.77a2.33,2.33,0,0,0,2.15,0,.65.65,0,0,0,0-1.24,2.33,2.33,0,0,0-2.15,0,.65.65,0,0,0,0,1.24"/><polygon class="cls-15" points="672.77 534.75 671.88 535.27 553.75 467.07 554.63 466.55 672.77 534.75"/><path class="cls-15" d="M863.65,536.65a1.22,1.22,0,0,1,0,2.3,4.37,4.37,0,0,1-4,0,1.22,1.22,0,0,1,0-2.3A4.37,4.37,0,0,1,863.65,536.65Zm-3.06,1.77a2.35,2.35,0,0,0,2.16,0,.66.66,0,0,0,0-1.24,2.33,2.33,0,0,0-2.15,0,.65.65,0,0,0,0,1.24"/><polygon class="cls-15" points="836.29 546.31 835.4 546.83 783.08 516.62 783.97 516.1 836.29 546.31"/><polygon class="cls-15" points="812.29 556.12 811.4 556.64 759.08 526.43 759.96 525.91 812.29 556.12"/><polygon class="cls-15" points="734.17 558.37 733.28 558.88 581.13 471.04 582.02 470.53 734.17 558.37"/><path class="cls-15" d="M822.78,560.4a1.21,1.21,0,0,1,0,2.3,4.34,4.34,0,0,1-4,0,1.21,1.21,0,0,1,0-2.3A4.37,4.37,0,0,1,822.78,560.4Zm-3.06,1.77a2.35,2.35,0,0,0,2.16,0,.65.65,0,0,0,0-1.24,2.33,2.33,0,0,0-2.15,0,.66.66,0,0,0,0,1.24"/><path class="cls-15" d="M741.81,561a1.22,1.22,0,0,1,0,2.3,4.43,4.43,0,0,1-4,0,1.22,1.22,0,0,1,0-2.3A4.37,4.37,0,0,1,741.81,561Zm-3.06,1.77a2.39,2.39,0,0,0,2.15,0,.66.66,0,0,0,0-1.25,2.39,2.39,0,0,0-2.15,0,.66.66,0,0,0,0,1.25"/><polygon class="cls-15" points="805.64 564.12 804.75 564.64 752.43 534.43 753.32 533.91 805.64 564.12"/><polygon class="cls-15" points="869.06 565.23 868.17 565.74 839.89 549.41 840.78 548.9 869.06 565.23"/><polygon class="cls-15" points="889.8 565.37 888.91 565.88 823.33 528.02 824.21 527.5 889.8 565.37"/><polygon class="cls-15" points="781.63 573.94 780.75 574.45 694.34 524.57 695.23 524.05 781.63 573.94"/><polygon class="cls-15" points="864.09 574.19 863.2 574.71 797.61 536.84 798.5 536.33 864.09 574.19"/><polygon class="cls-15" points="844 574.43 843.12 574.95 827.5 565.93 828.38 565.42 844 574.43"/><polygon class="cls-15" points="838.41 583.04 837.52 583.56 809.24 567.23 810.13 566.71 838.41 583.04"/><polygon class="cls-15" points="764.77 587.87 763.88 588.39 711.56 558.18 712.45 557.66 764.77 587.87"/><polygon class="cls-15" points="813.35 592.25 812.46 592.76 796.85 583.75 797.73 583.23 813.35 592.25"/><polygon class="cls-15" points="838.72 595.06 837.83 595.57 772.24 557.7 773.13 557.19 838.72 595.06"/><polygon class="cls-15" points="813 603.88 812.11 604.4 746.52 566.53 747.41 566.01 813 603.88"/></g><polygon class="cls-15" points="884.87 550.68 883.99 551.2 868.37 542.18 869.25 541.67 884.87 550.68"/><polygon class="cls-15" points="816.52 523.06 815.63 523.57 799.26 514.12 800.14 513.6 816.52 523.06"/><polygon class="cls-15" points="782.7 610.06 781.81 610.58 766.19 601.56 767.08 601.04 782.7 610.06"/><polygon class="cls-15" points="797.54 606.79 796.65 607.31 768.37 590.98 769.26 590.46 797.54 606.79"/><path class="cls-15" d="M701.51,573.24a1.22,1.22,0,0,1,0,2.3,4.37,4.37,0,0,1-4,0,1.22,1.22,0,0,1,0-2.3A4.37,4.37,0,0,1,701.51,573.24ZM698.45,575a2.39,2.39,0,0,0,2.15,0,.66.66,0,0,0,0-1.24,2.35,2.35,0,0,0-2.16,0,.66.66,0,0,0,0,1.24"/><polygon class="cls-15" points="750.98 591.75 750.1 592.26 697.77 562.06 698.66 561.54 750.98 591.75"/><path class="cls-15" d="M692.73,556.33a1.22,1.22,0,0,1,0,2.31,4.43,4.43,0,0,1-4,0,1.22,1.22,0,0,1,0-2.31A4.43,4.43,0,0,1,692.73,556.33Zm-3.06,1.78a2.41,2.41,0,0,0,2.16,0,.66.66,0,0,0,0-1.25,2.39,2.39,0,0,0-2.15,0c-.6.34-.59.9,0,1.25"/><polygon class="cls-15" points="680.49 562.88 679.6 563.4 638.1 539.44 638.99 538.92 680.49 562.88"/><polygon class="cls-15" points="696.35 548.37 695.46 548.89 679.84 539.87 680.73 539.35 696.35 548.37"/><path class="cls-15" d="M705,551.6c1.1.64,1.11,1.67,0,2.3a4.34,4.34,0,0,1-4,0,1.22,1.22,0,0,1,0-2.3A4.43,4.43,0,0,1,705,551.6Zm-3,1.78a2.39,2.39,0,0,0,2.15,0,.66.66,0,0,0,0-1.25,2.39,2.39,0,0,0-2.15,0c-.59.34-.59.9,0,1.25"/><path class="cls-15" d="M761.48,596a1.22,1.22,0,0,1,0,2.31,4.43,4.43,0,0,1-4,0,1.22,1.22,0,0,1,0-2.31A4.43,4.43,0,0,1,761.48,596Zm-3.06,1.78a2.39,2.39,0,0,0,2.15,0c.6-.34.59-.9,0-1.25a2.41,2.41,0,0,0-2.16,0,.66.66,0,0,0,0,1.25"/><polygon class="cls-15" points="632.86 535.39 631.97 535.9 625.2 531.99 626.09 531.48 632.86 535.39"/><polygon class="cls-15" points="671.07 545.61 670.18 546.12 653.8 536.67 654.69 536.15 671.07 545.61"/><polygon class="cls-15" points="683.72 552.91 682.83 553.43 676.05 549.52 676.94 549 683.72 552.91"/><polygon class="cls-15" points="814.8 628.59 813.91 629.11 787.67 613.96 788.56 613.44 814.8 628.59"/><polygon class="cls-15" points="837.14 629.66 836.25 630.17 801.6 610.16 802.49 609.65 837.14 629.66"/><polygon class="cls-15" points="835.24 616.72 834.35 617.24 817.97 607.78 818.86 607.26 835.24 616.72"/><polygon class="cls-15" points="845.45 610.78 844.56 611.3 818.32 596.14 819.21 595.63 845.45 610.78"/><polygon class="cls-15" points="867.8 611.84 866.91 612.36 850.53 602.9 851.42 602.39 867.8 611.84"/><path class="cls-15" d="M846.82,598a1.22,1.22,0,0,1,0,2.31,4.41,4.41,0,0,1-4,0,1.22,1.22,0,0,1,0-2.31A4.43,4.43,0,0,1,846.82,598Zm-3.06,1.78a2.41,2.41,0,0,0,2.16,0,.66.66,0,0,0,0-1.25,2.39,2.39,0,0,0-2.15,0,.66.66,0,0,0,0,1.25"/><g class="cls-2"><polygon class="cls-15" points="886.32 587.03 885.43 587.55 869.06 578.09 869.95 577.58 886.32 587.03"/><polygon class="cls-15" points="876.1 592.97 875.22 593.48 848.97 578.33 849.86 577.82 876.1 592.97"/><polygon class="cls-15" points="878.01 605.91 877.12 606.42 842.47 586.41 843.35 585.9 878.01 605.91"/></g><polygon class="cls-15" points="908.66 588.09 907.77 588.61 873.12 568.6 874 568.08 908.66 588.09"/><path class="cls-15" d="M776.55,510a1.21,1.21,0,0,1,0,2.3,4.34,4.34,0,0,1-4,0,1.22,1.22,0,0,1,0-2.3A4.37,4.37,0,0,1,776.55,510Zm-3,1.77a2.33,2.33,0,0,0,2.15,0,.65.65,0,0,0,0-1.24,2.33,2.33,0,0,0-2.15,0,.66.66,0,0,0,0,1.24"/><polygon class="cls-15" points="918.88 582.16 917.99 582.67 901.62 573.22 902.5 572.7 918.88 582.16"/><polygon class="cls-15" points="794.8 510.52 793.91 511.03 787.13 507.12 788.02 506.6 794.8 510.52"/><polygon class="cls-15" points="916.97 569.22 916.09 569.73 889.84 554.58 890.73 554.07 916.97 569.22"/><path class="cls-15" d="M897.91,568.26a1.22,1.22,0,0,1,0,2.31,4.43,4.43,0,0,1-4,0,1.22,1.22,0,0,1,0-2.31A4.43,4.43,0,0,1,897.91,568.26ZM894.85,570a2.39,2.39,0,0,0,2.15,0,.66.66,0,0,0,0-1.25,2.41,2.41,0,0,0-2.16,0,.66.66,0,0,0,0,1.25"/><polygon class="cls-15" points="772.12 615.79 771.23 616.3 705.64 578.44 706.53 577.92 772.12 615.79"/><polygon class="cls-15" points="796.19 629.69 795.3 630.2 778.93 620.75 779.82 620.23 796.19 629.69"/><polygon class="cls-15" points="816.71 641.53 815.82 642.05 799.44 632.59 800.33 632.08 816.71 641.53"/><polygon class="cls-15" points="692.63 569.89 691.74 570.41 684.96 566.5 685.85 565.98 692.63 569.89"/><polygon class="cls-15" points="888.23 599.97 887.34 600.49 880.56 596.57 881.45 596.06 888.23 599.97"/><polygon class="cls-15" points="898.45 594.03 897.56 594.55 890.78 590.63 891.67 590.12 898.45 594.03"/><polygon class="cls-15" points="857.58 617.78 856.69 618.3 849.91 614.38 850.8 613.87 857.58 617.78"/><path class="cls-15" d="M792.13,578.21a1.22,1.22,0,0,1,0,2.31,4.43,4.43,0,0,1-4,0,1.22,1.22,0,0,1,0-2.31A4.43,4.43,0,0,1,792.13,578.21ZM789.07,580a2.41,2.41,0,0,0,2.16,0,.66.66,0,0,0,0-1.25,2.39,2.39,0,0,0-2.15,0c-.6.34-.59.9,0,1.25"/><polygon class="cls-15" points="929.1 576.22 928.21 576.73 921.43 572.82 922.32 572.3 929.1 576.22"/><path class="cls-15" d="M760.81,477.28a1.22,1.22,0,0,1,0,2.3,4.37,4.37,0,0,1-4,0,1.21,1.21,0,0,1,0-2.3A4.34,4.34,0,0,1,760.81,477.28Zm-3,1.77a2.33,2.33,0,0,0,2.15,0,.65.65,0,0,0,0-1.24,2.33,2.33,0,0,0-2.15,0,.65.65,0,0,0,0,1.24"/><polygon class="cls-15" points="847.36 623.72 846.47 624.24 839.69 620.32 840.58 619.81 847.36 623.72"/><polygon class="cls-15" points="826.93 635.59 826.04 636.11 819.26 632.2 820.15 631.68 826.93 635.59"/><polygon class="cls-15" points="765.43 552.75 764.54 553.26 748.17 543.81 749.06 543.29 765.43 552.75"/><polygon class="cls-15" points="743.71 540.2 742.82 540.72 736.05 536.81 736.93 536.29 743.71 540.2"/><polygon class="cls-15" points="371.07 325.06 370.19 325.58 363.41 321.66 364.3 321.15 371.07 325.06"/><polygon class="cls-15" points="945.51 597.53 944.63 598.05 928.25 588.6 929.14 588.08 945.51 597.53"/><polygon class="cls-15" points="945.16 609.17 944.28 609.69 918.03 594.53 918.92 594.02 945.16 609.17"/><polygon class="cls-15" points="913.57 590.93 912.68 591.45 905.91 587.53 906.8 587.02 913.57 590.93"/><polygon class="cls-15" points="923.79 584.99 922.9 585.51 916.12 581.6 917.01 581.08 923.79 584.99"/><polygon class="cls-15" points="912.96 602.41 912.07 602.93 895.69 593.47 896.58 592.95 912.96 602.41"/><path class="cls-15" d="M920.63,605.06a1.21,1.21,0,0,1,0,2.3,4.37,4.37,0,0,1-4,0,1.22,1.22,0,0,1,0-2.3A4.37,4.37,0,0,1,920.63,605.06Zm-3.06,1.77a2.35,2.35,0,0,0,2.16,0,.65.65,0,0,0,0-1.24,2.33,2.33,0,0,0-2.15,0,.66.66,0,0,0,0,1.24"/><path class="cls-15" d="M1025.64,642a1.22,1.22,0,0,1,0,2.31,4.43,4.43,0,0,1-4,0,1.22,1.22,0,0,1,0-2.31A4.41,4.41,0,0,1,1025.64,642Zm-3.05,1.78a2.39,2.39,0,0,0,2.15,0c.59-.34.59-.9,0-1.25a2.39,2.39,0,0,0-2.15,0,.66.66,0,0,0,0,1.25"/><polygon class="cls-15" points="1034.86 637.28 1033.97 637.8 1018.36 628.78 1019.25 628.27 1034.86 637.28"/><polygon class="cls-15" points="1027.44 668.51 1026.55 669.02 1019.77 665.11 1020.66 664.59 1027.44 668.51"/><path class="cls-15" d="M1018.08,696.83a1.22,1.22,0,0,1,0,2.3,4.37,4.37,0,0,1-4,0,1.22,1.22,0,0,1,0-2.3A4.4,4.4,0,0,1,1018.08,696.83ZM1015,698.6a2.33,2.33,0,0,0,2.15,0,.65.65,0,0,0,0-1.24,2.39,2.39,0,0,0-2.15,0,.65.65,0,0,0,0,1.24"/><polygon class="cls-15" points="949.75 706.51 948.86 707.03 896.54 676.82 897.43 676.3 949.75 706.51"/><polygon class="cls-15" points="923.93 703.44 923.04 703.95 857.45 666.08 858.34 665.57 923.93 703.44"/><path class="cls-15" d="M869.54,634.75a1.22,1.22,0,0,1,0,2.3,4.37,4.37,0,0,1-4,0,1.21,1.21,0,0,1,0-2.3A4.34,4.34,0,0,1,869.54,634.75Zm-3,1.77a2.33,2.33,0,0,0,2.15,0,.65.65,0,0,0,0-1.24,2.36,2.36,0,0,0-2.15,0,.66.66,0,0,0,0,1.25"/><polygon class="cls-15" points="873.64 650.73 872.76 651.25 846.51 636.1 847.4 635.58 873.64 650.73"/><polygon class="cls-15" points="859.72 654.53 858.83 655.04 824.17 635.03 825.06 634.52 859.72 654.53"/><polygon class="cls-15" points="843.34 656.91 842.45 657.43 826.08 647.97 826.97 647.46 843.34 656.91"/><polygon class="cls-15" points="821.62 644.37 820.73 644.88 813.95 640.97 814.84 640.46 821.62 644.37"/><path class="cls-15" d="M852.73,660.55c1.1.64,1.11,1.67,0,2.3a4.37,4.37,0,0,1-4,0,1.21,1.21,0,0,1,0-2.3A4.37,4.37,0,0,1,852.73,660.55Zm-3.05,1.78a2.39,2.39,0,0,0,2.15,0,.66.66,0,0,0,0-1.25,2.39,2.39,0,0,0-2.15,0c-.59.34-.59.9,0,1.25"/><polygon class="cls-15" points="861.87 632.1 860.98 632.61 844.6 623.16 845.49 622.64 861.87 632.1"/><polygon class="cls-15" points="890.37 636.72 889.48 637.23 854.82 617.22 855.71 616.71 890.37 636.72"/><polygon class="cls-15" points="894.43 627.22 893.54 627.74 877.16 618.28 878.05 617.77 894.43 627.22"/><polygon class="cls-15" points="914.51 626.98 913.63 627.5 887.38 612.35 888.27 611.83 914.51 626.98"/><polygon class="cls-15" points="921.02 618.9 920.13 619.42 885.47 599.41 886.36 598.89 921.02 618.9"/><polygon class="cls-15" points="882.92 608.74 882.03 609.26 875.26 605.35 876.14 604.83 882.92 608.74"/><polygon class="cls-15" points="842.05 632.49 841.16 633.01 834.39 629.1 835.28 628.58 842.05 632.49"/><g class="cls-2"><polygon class="cls-15" points="966.64 621.57 965.75 622.08 950.13 613.07 951.02 612.55 966.64 621.57"/><polygon class="cls-15" points="1011.28 623.67 1010.39 624.18 926.34 575.66 927.23 575.14 1011.28 623.67"/><path class="cls-15" d="M975.32,624.8a1.21,1.21,0,0,1,0,2.3,4.34,4.34,0,0,1-4,0,1.22,1.22,0,0,1,0-2.3A4.37,4.37,0,0,1,975.32,624.8Zm-3.05,1.77a2.33,2.33,0,0,0,2.15,0,.65.65,0,0,0,0-1.24,2.33,2.33,0,0,0-2.15,0,.65.65,0,0,0,0,1.24"/><polygon class="cls-15" points="954.25 638.09 953.36 638.6 925.08 622.27 925.97 621.76 954.25 638.09"/><polygon class="cls-15" points="1016.96 638.78 1016.07 639.3 950.48 601.43 951.37 600.92 1016.96 638.78"/><polygon class="cls-15" points="935.99 639.38 935.1 639.9 919.48 630.88 920.37 630.36 935.99 639.38"/><path class="cls-15" d="M944.67,642.61a1.22,1.22,0,0,1,0,2.31,4.43,4.43,0,0,1-4,0,1.22,1.22,0,0,1,0-2.31A4.43,4.43,0,0,1,944.67,642.61Zm-3,1.78a2.39,2.39,0,0,0,2.15,0,.66.66,0,0,0,0-1.25,2.39,2.39,0,0,0-2.15,0c-.59.34-.59.9,0,1.25"/><polygon class="cls-15" points="991.24 647.61 990.36 648.13 924.77 610.26 925.66 609.74 991.24 647.61"/><polygon class="cls-15" points="923.6 655.9 922.71 656.42 894.42 640.09 895.31 639.57 923.6 655.9"/><polygon class="cls-15" points="1035.06 661.07 1034.17 661.59 981.85 631.38 982.74 630.86 1035.06 661.07"/><polygon class="cls-15" points="1015.32 661.51 1014.43 662.02 998.05 652.57 998.94 652.05 1015.32 661.51"/><polygon class="cls-15" points="895.12 663.13 894.23 663.65 878.61 654.63 879.5 654.11 895.12 663.13"/><path class="cls-15" d="M903.8,666.36a1.22,1.22,0,0,1,0,2.31,4.41,4.41,0,0,1-4,0,1.22,1.22,0,0,1,0-2.31A4.43,4.43,0,0,1,903.8,666.36Zm-3,1.78a2.39,2.39,0,0,0,2.15,0,.66.66,0,0,0,0-1.25,2.39,2.39,0,0,0-2.15,0c-.59.34-.59.9,0,1.25"/><polygon class="cls-15" points="1011.06 670.88 1010.17 671.4 957.84 641.19 958.73 640.68 1011.06 670.88"/><polygon class="cls-15" points="892.94 673.71 892.05 674.23 863.77 657.9 864.66 657.38 892.94 673.71"/><path class="cls-15" d="M1021.55,675.16a1.22,1.22,0,0,1,0,2.3,4.37,4.37,0,0,1-4,0,1.22,1.22,0,0,1,0-2.3A4.4,4.4,0,0,1,1021.55,675.16Zm-3.06,1.77a2.33,2.33,0,0,0,2.15,0,.66.66,0,0,0,0-1.24,2.39,2.39,0,0,0-2.15,0,.65.65,0,0,0,0,1.24"/><polygon class="cls-15" points="1009.4 693.6 1008.51 694.12 899.4 631.12 900.29 630.6 1009.4 693.6"/><polygon class="cls-15" points="982.31 701.63 981.42 702.15 873.68 639.95 874.57 639.43 982.31 701.63"/><polygon class="cls-15" points="1047.93 704.01 1047.04 704.53 951.2 649.19 952.09 648.67 1047.93 704.01"/><polygon class="cls-15" points="1023.92 713.82 1023.04 714.34 927.19 659.01 928.08 658.49 1023.92 713.82"/><polygon class="cls-15" points="1007.06 727.76 1006.17 728.28 910.33 672.94 911.22 672.42 1007.06 727.76"/></g><polygon class="cls-15" points="872.71 614.68 871.82 615.2 865.04 611.28 865.93 610.77 872.71 614.68"/><g class="cls-16"><g id="Floor"><path id="Floor-2" data-name="Floor" class="cls-17" d="M684.8,739.31c35.87,0,69.6-8,95-22.53L993.2,594.54c25.36-14.53,39.33-33.84,39.33-54.39s-14-39.86-39.33-54.39L779.76,363.52C754.4,349,720.67,341,684.8,341s-69.6,8-95,22.53L376.4,485.76c-52.36,30-52.36,78.79,0,108.78L589.84,716.78C615.2,731.31,648.93,739.31,684.8,739.31Z"/></g></g><g id="Floor-3" data-name="Floor"><path id="Depth" class="cls-18" d="M351.9,560.28l-1-1.06c-.56-.63-1.09-1.27-1.62-1.91v0c-7.37-9-11.63-18.81-12.46-29,0-.1,0-.2,0-.3,0-.56-.08-1.13-.1-1.69,0-.25,0-.5,0-.75s0-.62,0-.93V506.34c0-.31,0-.61,0-.92s0-.51,0-.76c0-.56.06-1.12.1-1.69,0-.1,0-.2,0-.3.82-10.16,5.09-20,12.46-29h0c.53-.64,1.06-1.28,1.62-1.92.31-.35.63-.69.95-1s.38-.43.58-.64c.5-.54,1-1.07,1.54-1.61h0a101.25,101.25,0,0,1,22-16.54l213.54-122.3c25.38-14.54,59.12-22.54,95-22.54h.06c35.89,0,69.63,8,95,22.54l213.54,122.3a101.25,101.25,0,0,1,22,16.54h0c.52.54,1,1.07,1.54,1.61.2.21.39.42.58.64s.64.69.95,1c.56.64,1.09,1.28,1.62,1.92h0c7.37,9,11.64,18.81,12.46,29,0,.1,0,.2,0,.3,0,.57.08,1.13.1,1.69,0,.25,0,.51,0,.76s0,.61,0,.92v18.31c0,.31,0,.62,0,.93s0,.5,0,.75c0,.56-.06,1.13-.1,1.69,0,.1,0,.2,0,.3-.82,10.16-5.09,20-12.46,29v0c-.53.64-1.06,1.28-1.62,1.91l-1,1.06c-.19.21-.37.42-.57.63-.5.54-1,1.07-1.54,1.6h0a101.25,101.25,0,0,1-22,16.54L779.6,701.37c-25.38,14.53-59.12,22.53-95,22.53h-.06c-35.89,0-69.63-8-95-22.53L376,579.06a101.25,101.25,0,0,1-22-16.54h0c-.52-.53-1-1.06-1.54-1.6Z"/><path id="Floor-4" data-name="Floor" class="cls-19" d="M684.79,705.75c35.89,0,69.63-8,95-22.53L993.33,560.91c25.38-14.53,39.35-33.86,39.35-54.41s-14-39.88-39.35-54.42L779.79,329.78c-25.37-14.53-59.11-22.54-95-22.54s-69.63,8-95,22.54L376.24,452.08c-52.38,30-52.38,78.83,0,108.83L589.78,683.22C615.16,697.75,648.9,705.75,684.79,705.75Z"/></g><path class="cls-18" d="M691.59,335.14l17-45.08c2.8-7.41,10.6-10.65,16.88-7l25.13,14.54c4.53,2.62,7.06,8.18,6.34,13.9l-7.47,58.68Z"/><path class="cls-15" d="M701.49,352l-34,20.82c-5.51,3.37-9.77,1.79-9.46-3.52l.29-5.1c.31-5.3,5.06-12.4,10.57-15.78l34-20.82c5.51-3.37,9.77-1.79,9.46,3.52l-.29,5.1C711.75,341.51,707,348.61,701.49,352Z"/><path class="cls-20" d="M699.47,306.59S678.19,321,684.53,353.44l8.39,4.86,1.62-21.49Z"/><g class="cls-21"><path class="cls-4" d="M610.25,405.92c-8.93-5.15-24.67-4.5-35,1.45L556,468.91c-10.31,6-11.44,15-2.51,20.2l-22.43,15.75-38.5,20.31L546,557.59l40.27-20.86h0L644,570l-38.88,20.52,54.38,32.3,44.48-22.6,61.63,34.44,111.8-64.19Z"/></g><ellipse class="cls-22" cx="922.52" cy="522.68" rx="9.62" ry="16.91" transform="translate(394.99 1442.44) rotate(-89.7)"/><polygon class="cls-22" points="922.52 522.68 905.61 522.68 899.42 487.17 945.34 488.48 939.43 522.68 922.52 522.68"/><ellipse class="cls-23" cx="922.52" cy="486.01" rx="13.2" ry="23.2" transform="translate(431.66 1405.96) rotate(-89.7)"/><path class="cls-24" d="M941.15,489.6a12.39,12.39,0,0,1-4.7,4.33c-7.64,4.34-20.07,4.33-27.77-.05a12.48,12.48,0,0,1-4.79-4.41c-2.25-3.88-.69-8.31,4.71-11.38,7.65-4.34,20.07-4.32,27.76.05C941.82,481.24,943.42,485.71,941.15,489.6Z"/><path class="cls-22" d="M941.15,489.6a12.39,12.39,0,0,1-4.7,4.33c-7.64,4.34-20.07,4.33-27.77-.05a12.48,12.48,0,0,1-4.79-4.41,12.35,12.35,0,0,1,4.71-4.33c7.65-4.35,20.07-4.33,27.76,0A12.5,12.5,0,0,1,941.15,489.6Z"/><ellipse class="cls-25" cx="922.52" cy="522.68" rx="9.62" ry="16.91" transform="translate(394.99 1442.44) rotate(-89.7)"/><polygon class="cls-25" points="922.52 522.68 905.61 522.68 899.42 487.17 945.34 488.48 939.43 522.68 922.52 522.68"/><ellipse class="cls-23" cx="922.52" cy="486.01" rx="13.2" ry="23.2" transform="translate(431.66 1405.96) rotate(-89.7)"/><path class="cls-26" d="M941.15,489.6a12.39,12.39,0,0,1-4.7,4.33c-7.64,4.34-20.07,4.33-27.77-.05a12.48,12.48,0,0,1-4.79-4.41c-2.25-3.88-.69-8.31,4.71-11.38,7.65-4.34,20.07-4.32,27.76.05C941.82,481.24,943.42,485.71,941.15,489.6Z"/><path class="cls-27" d="M941.15,489.6a12.39,12.39,0,0,1-4.7,4.33c-7.64,4.34-20.07,4.33-27.77-.05a12.48,12.48,0,0,1-4.79-4.41,12.35,12.35,0,0,1,4.71-4.33c7.65-4.35,20.07-4.33,27.76,0A12.5,12.5,0,0,1,941.15,489.6Z"/><path class="cls-28" d="M914.5,393.24s-6.22-9.7-15.3-8.84-18.34,5.15-20.63,7-6.35,7,12,9.14S914.5,393.24,914.5,393.24Z"/><path class="cls-28" d="M895.28,327s-5.53,6.74,0,17.19,24.47,13.45,24.47,13.45.33-6.07.13-11.81S908.61,315.11,895.28,327Z"/><path class="cls-20" d="M919.75,494.83s4.33-101.21.14-129.75c-3.53-24.06-24-36.86-24-36.86s25.12,9.2,29,47.46c2.45,24.19.2,119.15.2,119.15S923.72,497.12,919.75,494.83Z"/><path class="cls-28" d="M878.51,423.53c.94-1.3,9.92-4.37,21.88-2.32,9.25,1.58,18.34,5.85,15.93,10S911,436.29,911,436.3c0,.2-2,5.36-13.76,5.62C885,441.17,868.86,431.41,878.51,423.53Z"/><path class="cls-20" d="M922.5,441.39c.21-1.68-19.8-15.34-28.1-16.47-8-3-13.13-1.52-13.12-1.6-.25-.84,15.61,1.59,20.87,7.26,5.39,3.32,21.24,14.2,21.35,13.49A2.49,2.49,0,0,0,922.5,441.39Z"/><path class="cls-28" d="M957.23,348.12c-.92-.27-10.2-1.42-16.08,5.16s-13,10.91-11.26,18.75,0,7.7,0,7.7,5.26-6.2,13.53-6.65S965,350.37,957.23,348.12Z"/><path class="cls-20" d="M924.73,384.8c.26-.2,15-20.27,20.67-26.36s9.67-8.38,9.67-8.38S943.52,361,939.9,367.43s-15.58,23.45-16,20.41S924.73,384.8,924.73,384.8Z"/><path class="cls-20" d="M921.93,397.68c-.44-1.42-4.52-4-13.45-6.27-12.49-3.2-27.87,0-27.87,0a53.29,53.29,0,0,1,26-1.83c7.06,1.38,17.68,6.34,17.68,6.34S923.09,401.36,921.93,397.68Z"/><path class="cls-28" d="M931.41,400.92s6.62-7,13.5-3.48,28.27,22.2,14.67,23.5S920,411.28,931.41,400.92Z"/><path class="cls-20" d="M924.34,410.5s6.81-5.34,14.18-5.24c9.78.14,24.69,10.53,24.69,10.53s-14.16-13.18-24.69-13.09C933.37,402.75,924.34,404.34,924.34,410.5Z"/><path class="cls-28" d="M916.3,470.81s3.45-9.59-12.53-6.53c-7.57,1.45-32.59,19.7-19,21S927.7,481.18,916.3,470.81Z"/><path class="cls-29" d="M921,477.34s-5.27-8.44-12.45-6.8-24.7,12.09-24.7,12.09,19.58-13.5,24.7-14.1S921,471.18,921,477.34Z"/><path class="cls-28" d="M930.47,449.15s6.95-10.15,24.14-6.93c9.54,1.78,34,19.26,16.93,20.9S916.11,462.21,930.47,449.15Z"/><path class="cls-30" d="M923.74,461.22s1.64-7.55,15.68-8.56c9.26-.67,34.94,6.08,34.94,6.08s-26.21-9.18-32.65-9.94S923.74,453.46,923.74,461.22Z"/><path class="cls-15" d="M754.51,422h0c-1.36.16-2.55-.44-2.65-1.34l-6.81-57c-.11-.9.9-1.76,2.26-1.92h0c1.36-.17,2.55.43,2.66,1.33l6.8,57C756.88,421,755.87,421.84,754.51,422Z"/><path class="cls-15" d="M741.37,382.68l-34,20.82c-5.5,3.37-9.76,1.79-9.46-3.52l.3-5.1c.3-5.3,5.06-12.41,10.56-15.78l34-20.82c5.51-3.37,9.77-1.79,9.47,3.52l-.3,5.09C751.64,372.2,746.88,379.3,741.37,382.68Z"/><path class="cls-31" d="M699.34,304.9s-6.3,9.51-7.38,32c-.28,6,.25,10.75,0,16.72-.22,5.44-.34,11.67,3.42,15.19,0,0,26.08,15.29,33-1.92,0,0-.43-43.62,5.47-46.57C733.81,320.28,714.58,298.51,699.34,304.9Z"/><path class="cls-32" d="M726.17,320.09s-10.55,12.54-3.67,52.85l6-3.7S727.16,326.48,726.17,320.09Z"/><path class="cls-18" d="M765.34,635.45h0a3.34,3.34,0,0,1-3.37-3.3l-1.64-152.66a3.34,3.34,0,0,1,3.3-3.37h0a3.34,3.34,0,0,1,3.37,3.3l1.64,152.66A3.34,3.34,0,0,1,765.34,635.45Z"/><polygon class="cls-15" points="767.72 555.47 760.99 551.76 761.03 533.4 767.86 533.8 767.72 555.47"/><path class="cls-18" d="M879.12,572.13h0c-1.83.19-3.34-.64-3.37-1.86l-2.82-100.51c0-1.21,1.42-2.35,3.25-2.53h0c1.83-.19,3.34.64,3.37,1.85l2.82,100.51C882.4,570.81,881,571.94,879.12,572.13Z"/><polygon class="cls-15" points="880.01 483.46 873.29 481.65 873.19 469.54 879.98 469.15 880.01 483.46"/><path class="cls-18" d="M788,405.51l17.92-47.38c2.94-7.79,11.14-11.2,17.74-7.38L850.1,366c4.76,2.75,7.42,8.6,6.66,14.62l-8.89,60.59Z"/><path class="cls-15" d="M838.82,453l-35.76,21.89c-5.79,3.55-10.26,1.89-9.94-3.69l.3-5.36c.32-5.58,5.32-13.05,11.11-16.59l35.76-21.89c5.79-3.55,10.26-1.89,9.94,3.69l-.3,5.36C849.61,441.94,844.61,449.41,838.82,453Z"/><path class="cls-25" d="M802.42,362.91s-12.45,11.56-8,34.54c1.23,6.33.87,11.67,0,18.06a34.88,34.88,0,0,1-1.18,6.41s32,24.22,40.49,7.93c0,0-6.37-52.59,0-55.78C833.76,374.07,818.89,356,802.42,362.91Z"/><path class="cls-25" d="M832.7,373.54s-14.34,20.22-6.9,66.29l6.37-1.12S833.76,380.84,832.7,373.54Z"/><path class="cls-18" d="M759.73,539.62,542.07,414c-3.41-2-2.91-5.54,1.12-8l103.89-62.67c4-2.43,10.07-2.81,13.48-.84L878.22,468.14c3.41,2,2.91,5.54-1.12,8L773.21,538.78C769.18,541.21,763.14,541.59,759.73,539.62Z"/><path class="cls-33" d="M760.5,530.21,542.08,404.11c-3.42-2-3-5.43,1-7.71L645,337.55c3.95-2.28,9.93-2.53,13.36-.55L876.73,463.1c3.43,2,3,5.43-1,7.71L773.86,529.66C769.9,531.94,763.92,532.19,760.5,530.21Z"/><path class="cls-34" d="M712.24,373.28l-5.35-1.75-.59-.63-.38-.7L668.1,349a1.88,1.88,0,0,0-1.68,0L652,357.32l0-.24-2.72,1.05.12,1.15h0a.68.68,0,0,0,.3.31L689,381.67c.06,0-4.63,3.91-4.61,4,.83,3.12,2.52,4.54,5.09,3l20.82-12.11a3.17,3.17,0,0,0,1.91-3.09Z"/><path class="cls-14" d="M688.2,384.93l-42.88-25.76c-.52-.3-.51-.79,0-1.1l26.42-8.18,40.1,22.49c.52.3.51.79,0,1.1l-22,12.53C689.34,386.32,688.73,385.23,688.2,384.93Z"/><path class="cls-35" d="M690.46,368.29l-11-6.16c-.13-.07-.13-.19,0-.26l4.66-2.69a.55.55,0,0,1,.47,0l11,6.15c.13.07.12.19,0,.27l-4.66,2.68A.55.55,0,0,1,690.46,368.29Z"/><path class="cls-36" d="M548.2,378.58s18.3.29,12.42-17.74a4.6,4.6,0,0,0-.45-.95L555.78,353l-18.87,1.52-4.34,7.91,3.79,11.12Z"/><rect class="cls-37" x="539.83" y="400.21" width="17.68" height="10.27"/><path class="cls-38" d="M626.57,379.39l4.11,2.45a.83.83,0,0,0,.86,0l7-4.21-7.1,3.63a.85.85,0,0,1-.73,0Z"/><path class="cls-39" d="M667.28,435.74c-2.41,6.34-7.4,7.75-11.14,3.15s-4.82-13.47-2.4-19.81,7.39-7.75,11.13-3.15S669.69,429.4,667.28,435.74Z"/><path class="cls-40" d="M676.37,436.5c-2.69,7-10.62,9-14.73,3.92s-5.26-14.83-2.56-21.84S667.3,410,671.41,415,679.07,429.49,676.37,436.5Z"/><path class="cls-40" d="M657.63,455.44l-.79-.25c-2.65-.83-2.85-3.69-2-6.34l3.41-15a5.07,5.07,0,0,1,6.35-3.31l.79.25a5.08,5.08,0,0,1,3.31,6.35l-2.41,15.06C665.45,454.86,660.29,456.28,657.63,455.44Z"/><path class="cls-41" d="M664.28,425.15s3.59,5.53,3,10.17l-1.15,6.9s-1.09,3.67,1.1,4.47,10.91-4.32,9.33-11.34c0,0-7.41,1.4-8.09-7.84S664.28,425.15,664.28,425.15Z"/><path class="cls-42" d="M758.39,453.92h0s0,0,0-.05v-.06h0v-.11h0v-.11h0l0-.05v-.05h0v0l0-.05v0h0l0-.05,0,0v0h0l0-.05,0,0h0l0,0,0,0,0,0h0a.16.16,0,0,0,0-.07v0h0l0-.08h0l0,0,0,0v0h0v0l0,0,0,0h0l0,0,0,0h0l-.05,0,0,0h0l0,0,0,0h0l0,0,0,0-.25-.14-1.38.75.35.2,0,0,0,0,0,0,0,0,.07.06h0l.07.07h0l.06.07h0l.06.07h0l0,.07,0,0,0,0a.1.1,0,0,1,0,.05l0,0,0,0,0,.06h0l0,.08h0l0,.09h0a.59.59,0,0,1,0,.08h0l0,.09h0a.31.31,0,0,1,0,.08v0s0,.05,0,.08v0a.25.25,0,0,0,0,.08h0a.28.28,0,0,0,0,.09V455l-4.78,29.54c0,.14-.57,1-.44,1l1.3-1.11a1.53,1.53,0,0,0,.52-.92l4.69-29,.06-.35V454h0v-.09Z"/><path class="cls-14" d="M757.72,448.69l-45.5-26.27h0l-.07,0h0l-.12-.07,0,0,0,0-.05,0,0,0h-.05l0,0h-.4l-.09,0h0l-.11.05-1.34.78.11-.05,0,0h.36l.11,0h0l.1,0h0l.12.05,0,0,0,0,.25.14h0l45.57,26.31a.17.17,0,0,0,.17,0l1-.58A.17.17,0,0,0,757.72,448.69Zm-46-26.19Z"/><g class="cls-43"><path class="cls-14" d="M705.82,452.37l4.39-25.15c.1-.55.65-.73,1.24-.4l33.7,19.09Z"/></g><path class="cls-35" d="M754.49,478h0a.18.18,0,0,1-.15-.2l4.3-26.6c.34-1.88-1.6-2.82-1.69-2.86l-41.59-23.93a.16.16,0,0,1-.06-.23.17.17,0,0,1,.23-.07L757.1,448s2.25,1.09,1.86,3.23l-4.29,26.59A.18.18,0,0,1,754.49,478Z"/><g class="cls-44"><path class="cls-38" d="M728.54,501.14l-25.85-25.93c-.54-.31-.47-.87.15-1.23l22.39-12.92a2.38,2.38,0,0,1,2.12-.09l40.92,23.62c.54.31-32.67,17.51-32.67,17.51C733.3,501.74,729.08,501.45,728.54,501.14Z"/></g><path class="cls-45" d="M756.13,453.05a2,2,0,0,1,.93,1.85l-4.85,30a.81.81,0,0,1-1.32.55L705,458.91a2,2,0,0,1-.94-1.84l4.85-30a.81.81,0,0,1,1.32-.54Z"/><path class="cls-14" d="M758.91,450.46h0v-.1h0v-.11h0v-.1h0v-.05l0-.05v0h0v0l0,0v0h0l0,0,0-.05v0h0v0l0,0,0-.05h0l0-.05,0,0,0,0h0l0-.07v0h0l-.06-.09h0l0,0,0,0v0h0l0,0,0,0h0l0,0,0,0h0l0,0-.05,0h0l0,0-.05,0h0l0,0,0,0-1.11-.65-1.37.83,1.19.62,0,0,0,0,.05,0h0l.07.06h0l.06.07h0l.06.06h0l.06.07h0l.06.08,0,0,0,.05,0,.05,0,0,0,0,0,.06v0a.59.59,0,0,1,0,.08h0a.36.36,0,0,1,0,.09h0l0,.08v0l0,.08h0a.29.29,0,0,1,0,.09h0a.29.29,0,0,0,0,.09h0s0,.06,0,.08v0s0,.05,0,.08v.2s0,0,0,.06v.12l-4.78,29.54c0,.14-.57,1-.44,1l1.31-1.11a1.49,1.49,0,0,0,.51-.92l4.69-29,.06-.35v-.09h0v-.1Z"/><path class="cls-46" d="M751.45,487.55l0-2.21-1.79,1.51-.38-.88L704.35,460a2.64,2.64,0,0,0-2.24.09l-19.45,11.16V471l-3,1.44-.41-.17.05,1.36a.64.64,0,0,0,.35.53l46.73,27.05a2.37,2.37,0,0,0,2.12-.05l22.39-12.91a.85.85,0,0,0,.51-.68Z"/><path class="cls-45" d="M726.39,499.38l-46.73-27c-.54-.32-.47-.87.15-1.23l22.4-12.92a2.29,2.29,0,0,1,2.11-.09l46.73,27c.54.31.48.86-.15,1.22l-22.39,12.93A2.38,2.38,0,0,1,726.39,499.38Z"/><path class="cls-47" d="M705,463.16a.39.39,0,0,1-.31,0l-2.84-1.64c-.1-.06-.13-.14-.06-.18l1.88-1.08a.39.39,0,0,1,.31,0l2.83,1.64c.1.06.13.14.06.18Z"/><path class="cls-47" d="M708.3,468a.35.35,0,0,1-.31,0l-2.84-1.64c-.1-.06-.13-.14-.06-.18l1.88-1.08a.35.35,0,0,1,.31,0l2.83,1.64c.11.06.13.14.07.18Z"/><path class="cls-47" d="M706.63,470.07a.33.33,0,0,1-.3,0l-2.84-1.64c-.1-.06-.13-.14-.07-.18l1.89-1.08a.33.33,0,0,1,.3,0l2.84,1.64c.1.06.13.14.06.18Z"/><path class="cls-47" d="M702.13,470.46a.35.35,0,0,1-.31,0L699,468.79c-.1-.06-.13-.14-.06-.18l1.87-1.08a.39.39,0,0,1,.31,0L704,469.2c.1.06.13.14.06.18Z"/><path class="cls-47" d="M694.32,469.33a.34.34,0,0,1-.3,0l-2.84-1.64c-.1-.06-.13-.14-.06-.18l2.2-1.27a.36.36,0,0,1,.31,0l2.84,1.63c.1.06.13.14.06.18Z"/><path class="cls-47" d="M699.22,472.15a.45.45,0,0,1-.37-.07l-3.72-2.15c-.13-.07-.19-.17-.12-.21l2.21-1.27a.46.46,0,0,1,.37.07l3.71,2.14c.14.08.19.18.12.21Z"/><path class="cls-47" d="M723.63,486.26a.34.34,0,0,1-.28-.05l-2.84-1.63c-.1-.06-.14-.14-.08-.17l.81-.47a.36.36,0,0,1,.29.05l2.84,1.63c.1.06.14.14.08.17Z"/><path class="cls-47" d="M727.42,488.5s-.18,0-.28,0l-2.84-1.64c-.1-.06-.14-.13-.08-.17l.81-.47a.36.36,0,0,1,.29.05l2.84,1.64c.1.06.14.13.08.16Z"/><path class="cls-47" d="M731.44,490.77a.34.34,0,0,1-.28,0l-2.84-1.64c-.1-.05-.14-.13-.09-.16l.79-.45c.05,0,.18,0,.29,0l2.83,1.63c.1.06.14.14.09.17Z"/><path class="cls-47" d="M729,487.64a.34.34,0,0,1-.28-.05L725.85,486c-.1-.06-.14-.13-.09-.16l.79-.46a.39.39,0,0,1,.28.05l2.84,1.64c.1.06.14.13.09.17Z"/><path class="cls-47" d="M718.73,483.41a.36.36,0,0,1-.31,0L700,472.72c-.1-.06-.13-.14-.06-.18l2.2-1.27a.35.35,0,0,1,.31,0L720.87,482c.11.05.13.14.07.17Z"/><path class="cls-47" d="M698.71,471.45h0l-2.17-1.25s0,0,0,0l.13-.08h0l2.17,1.25,0,0Z"/><path class="cls-47" d="M693.15,468h0l-.92-.54h0l.14-.07h0l.92.53h0Z"/><path class="cls-47" d="M706,472.71a.36.36,0,0,1-.31,0L702.88,471c-.11,0-.13-.14-.07-.17l1.88-1.09a.36.36,0,0,1,.31,0l2.84,1.63c.1.06.13.14.06.18Z"/><path class="cls-47" d="M709.93,475a.39.39,0,0,1-.31,0l-2.84-1.64c-.1-.06-.13-.14-.06-.18L708.6,472a.39.39,0,0,1,.31,0l2.84,1.64c.1.06.12.14.06.18Z"/><path class="cls-47" d="M713.83,477.22a.37.37,0,0,1-.3,0l-2.84-1.64c-.1-.06-.13-.14-.06-.17l1.88-1.09a.37.37,0,0,1,.3,0l2.84,1.64c.1.06.13.14.06.18Z"/><path class="cls-47" d="M717.74,479.47a.36.36,0,0,1-.31,0l-2.84-1.63c-.1-.06-.13-.14-.06-.18l1.88-1.09a.36.36,0,0,1,.31,0l2.84,1.64c.1.06.13.14.06.17Z"/><path class="cls-47" d="M721.65,481.72a.35.35,0,0,1-.31,0l-2.84-1.64c-.1-.06-.13-.14-.06-.18l1.88-1.08a.35.35,0,0,1,.31,0l2.83,1.64c.1.06.13.14.07.18Z"/><path class="cls-47" d="M725.55,484a.36.36,0,0,1-.31,0l-2.83-1.64c-.1-.05-.13-.13-.06-.17l1.88-1.09a.34.34,0,0,1,.3,0l2.84,1.63c.1.06.13.14.06.18Z"/><path class="cls-47" d="M734.35,489.05a.35.35,0,0,1-.31,0l-7.73-4.46c-.1-.06-.13-.14-.06-.18l1.88-1.09a.39.39,0,0,1,.31,0l7.73,4.46c.1.06.13.14.06.18Z"/><path class="cls-47" d="M710.52,472.31a.35.35,0,0,1-.31,0l-2.83-1.64c-.11-.06-.13-.14-.07-.18l1.88-1.08a.39.39,0,0,1,.31,0l2.84,1.64c.1.06.13.14.06.18Z"/><path class="cls-47" d="M714.43,474.57a.36.36,0,0,1-.31,0l-2.84-1.63c-.1-.06-.13-.14-.06-.18l1.88-1.09a.36.36,0,0,1,.31,0l2.84,1.64c.1.05.12.13.06.17Z"/><path class="cls-47" d="M718.33,476.82a.33.33,0,0,1-.3,0l-2.84-1.64c-.1-.06-.13-.14-.06-.18l1.88-1.08a.37.37,0,0,1,.3,0l2.84,1.64c.1.06.13.14.06.18Z"/><path class="cls-47" d="M722.24,479.08a.36.36,0,0,1-.31,0l-2.83-1.63c-.11-.06-.14-.14-.07-.18l1.88-1.09a.36.36,0,0,1,.31,0l2.84,1.63c.1.06.13.14.06.18Z"/><path class="cls-47" d="M726.15,481.33a.39.39,0,0,1-.31,0L723,479.66c-.1-.06-.13-.14-.06-.18l1.88-1.09a.4.4,0,0,1,.31,0l2.83,1.64c.11.06.13.14.07.17Z"/><path class="cls-47" d="M730.05,483.58a.33.33,0,0,1-.3,0l-2.84-1.64c-.1-.06-.13-.14-.06-.18l1.88-1.08a.34.34,0,0,1,.3,0l2.84,1.63c.1.06.13.14.06.18Z"/><path class="cls-47" d="M734,485.84a.36.36,0,0,1-.31,0l-2.84-1.63c-.1-.06-.13-.14-.06-.18l1.88-1.09a.36.36,0,0,1,.31,0l2.84,1.64c.1.05.13.13.06.17Z"/><path class="cls-47" d="M712.18,470.29a.34.34,0,0,1-.3,0L709,468.61c-.1-.06-.13-.13-.06-.17l1.88-1.09a.34.34,0,0,1,.3,0L714,469c.1.06.13.14.06.18Z"/><path class="cls-47" d="M716.09,472.54a.36.36,0,0,1-.31,0L713,470.87c-.11-.06-.13-.14-.07-.18l1.88-1.09a.36.36,0,0,1,.31,0l2.84,1.64c.1.05.13.14.06.17Z"/><path class="cls-47" d="M720,474.79a.35.35,0,0,1-.31,0l-2.84-1.64c-.1-.06-.13-.14-.06-.18l1.88-1.08a.35.35,0,0,1,.31,0l2.83,1.64c.11.06.13.14.07.18Z"/><path class="cls-47" d="M723.9,477.05a.36.36,0,0,1-.31,0l-2.83-1.63c-.1-.06-.13-.14-.06-.18l1.88-1.09a.34.34,0,0,1,.3,0l2.84,1.63c.1.06.13.14.06.18Z"/><path class="cls-47" d="M727.81,479.3a.39.39,0,0,1-.31,0l-2.83-1.64c-.11-.06-.13-.14-.07-.18l1.88-1.09a.39.39,0,0,1,.31,0l2.84,1.64c.1.06.13.14.06.17Z"/><path class="cls-47" d="M731.72,481.56a.36.36,0,0,1-.31,0l-2.84-1.64c-.1-.06-.13-.14-.06-.18l1.88-1.08a.39.39,0,0,1,.31,0l2.83,1.64c.11.06.13.14.07.18Z"/><path class="cls-47" d="M735.62,483.81a.36.36,0,0,1-.31,0l-2.83-1.63c-.1-.06-.13-.14-.06-.18l1.88-1.09a.34.34,0,0,1,.3,0l2.84,1.64c.1.05.13.13.06.17Z"/><path class="cls-47" d="M704.39,465.79a.36.36,0,0,1-.31,0L699.27,463c-.1-.06-.13-.14-.06-.18l1.88-1.09a.4.4,0,0,1,.31,0l4.81,2.78c.1.06.13.14.06.17Z"/><path class="cls-47" d="M742.12,484.57a.36.36,0,0,1-.31,0L737,481.76c-.1-.06-.13-.14-.06-.18l1.88-1.09a.34.34,0,0,1,.3,0l4.81,2.77c.11.06.13.14.07.18Z"/><path class="cls-47" d="M702.73,467.82a.36.36,0,0,1-.31,0l-5.74-3.31c-.1-.06-.13-.14-.06-.17l1.88-1.09a.36.36,0,0,1,.31,0l5.73,3.3c.11.06.13.14.07.18Z"/><path class="cls-47" d="M698.23,468.21a.39.39,0,0,1-.31,0L694.09,466c-.1-.06-.13-.14-.06-.18l1.88-1.09a.39.39,0,0,1,.31,0L700,467c.11.06.13.14.07.18Z"/><path class="cls-47" d="M708.91,465.41a.36.36,0,0,1-.31,0l-2.83-1.63c-.11-.06-.13-.14-.07-.18l1.88-1.09a.36.36,0,0,1,.31,0l2.84,1.64c.1.05.13.13.06.17Z"/><path class="cls-47" d="M712.8,467.65a.39.39,0,0,1-.31,0L709.65,466c-.1-.06-.13-.14-.06-.18l1.88-1.09a.39.39,0,0,1,.31,0l2.84,1.64c.1.06.13.14.06.18Z"/><path class="cls-47" d="M716.7,469.91a.37.37,0,0,1-.3,0l-2.84-1.64c-.1-.06-.13-.14-.06-.17l1.88-1.09a.39.39,0,0,1,.31,0l2.83,1.64c.11.06.13.14.06.18Z"/><path class="cls-47" d="M720.61,472.16a.36.36,0,0,1-.31,0l-2.83-1.63c-.1-.06-.13-.14-.06-.18l1.88-1.09a.34.34,0,0,1,.3,0l2.84,1.64c.1.06.13.14.06.17Z"/><path class="cls-47" d="M724.52,474.41a.35.35,0,0,1-.31,0l-2.84-1.64c-.1-.06-.13-.14-.06-.18l1.88-1.08a.35.35,0,0,1,.31,0l2.84,1.64c.1.06.12.14.06.18Z"/><path class="cls-47" d="M728.43,476.67a.36.36,0,0,1-.31,0L725.28,475c-.1-.05-.13-.13-.06-.17l1.88-1.09a.36.36,0,0,1,.31,0l2.83,1.63c.1.06.13.14.06.18Z"/><path class="cls-47" d="M732.33,478.92a.39.39,0,0,1-.31,0l-2.83-1.64c-.11-.06-.13-.14-.07-.18L731,476a.36.36,0,0,1,.31,0l2.84,1.64c.1.06.13.14.06.18Z"/><path class="cls-47" d="M736.24,481.18a.39.39,0,0,1-.31,0l-2.84-1.64c-.1-.06-.13-.14-.06-.18l1.88-1.08a.39.39,0,0,1,.31,0l2.84,1.64c.1.06.12.14.06.18Z"/><path class="cls-47" d="M738.51,483.16l-.17-.05a.2.2,0,0,0-.14,0l-1.88,1.08a.07.07,0,0,0,0,.08.21.21,0,0,0,.09.1l.74.43-2.46,1.42s0,.05,0,.08a.17.17,0,0,0,.09.1l1.91,1.1a.49.49,0,0,0,.17.06.2.2,0,0,0,.14,0l4.47-2.58a.07.07,0,0,0,0-.08.21.21,0,0,0-.09-.1Z"/><path class="cls-47" d="M697.72,467.3h0L695.52,466s0,0,0,0l.13-.08h0l2.17,1.25s0,0,0,0Z"/><path class="cls-47" d="M709.07,485.66l-10.39-5.82c-.12-.07-.11-.18,0-.25l4.41-2.54a.49.49,0,0,1,.44,0l10.39,5.83c.12.06.12.18,0,.25l-4.41,2.54A.49.49,0,0,1,709.07,485.66Z"/><path class="cls-48" d="M749.75,488.61l-.16,0a.75.75,0,1,1,.8-.5h0A.73.73,0,0,1,749.75,488.61Zm.15-1.08a.38.38,0,0,0-.3.29c-.07.19,0,.4.11.44s.29-.09.35-.28h0c.07-.19,0-.4-.11-.44Z"/><path class="cls-47" d="M756.63,449.56a2,2,0,0,1,.94,1.85l-4.85,30a.81.81,0,0,1-1.32.54l-45.91-26.5a2,2,0,0,1-.93-1.85l4.85-30a.81.81,0,0,1,1.32-.54Z"/><path class="cls-4" d="M755,451.49a1.7,1.7,0,0,1,.9,1.61l-4.39,25.14c-.09.56-.65.73-1.24.4L706.72,454a1.73,1.73,0,0,1-.9-1.6l4.39-25.15c.1-.55.65-.73,1.24-.4Z"/><path class="cls-48" d="M733.55,497.36a.17.17,0,0,1-.09-.32l2-1.2a.18.18,0,0,1,.24.06.16.16,0,0,1-.06.23l-2.05,1.21Z"/><path class="cls-48" d="M731,498.9a.17.17,0,0,1-.09-.32l2.05-1.2a.17.17,0,1,1,.18.3l-2,1.2Z"/><path class="cls-19" d="M743.83,450.77l-26.25-15.16a1.64,1.64,0,0,1-.7-1.33h0c0-.51.31-.75.7-.52l26.25,15.15a1.68,1.68,0,0,1,.7,1.33h0C744.53,450.75,744.21,451,743.83,450.77Z"/><path class="cls-25" d="M744.1,459.25,723,447a1.66,1.66,0,0,1-.69-1.33h0c0-.51.31-.75.69-.52l21.14,12.2a1.66,1.66,0,0,1,.7,1.33h0C744.8,459.24,744.49,459.47,744.1,459.25Z"/><path class="cls-14" d="M744.1,463.88l-7-4a1.67,1.67,0,0,1-.7-1.33h0c0-.51.32-.75.7-.52l7,4a1.67,1.67,0,0,1,.7,1.33h0C744.8,463.87,744.49,464.1,744.1,463.88Z"/><path class="cls-14" d="M726.65,453.81l-3.38-2a1.66,1.66,0,0,1-.7-1.33h0c0-.51.31-.75.7-.53l3.38,2a1.66,1.66,0,0,1,.7,1.33h0C727.35,453.79,727,454,726.65,453.81Z"/><path class="cls-15" d="M722.42,456.29,718,453.71a1.68,1.68,0,0,1-.7-1.34h0c0-.51.31-.74.7-.52l4.46,2.58a1.66,1.66,0,0,1,.7,1.33h0C723.12,456.27,722.81,456.51,722.42,456.29Z"/><path class="cls-19" d="M729.61,465.1,718,458.38a1.66,1.66,0,0,1-.7-1.33h0c0-.52.31-.75.7-.53l11.65,6.73a1.67,1.67,0,0,1,.7,1.33h0C730.31,465.09,730,465.33,729.61,465.1Z"/><path class="cls-18" d="M744,468.72,725.8,458.24a1.69,1.69,0,0,1-.69-1.34h0c0-.51.31-.74.69-.52L744,466.86a1.69,1.69,0,0,1,.69,1.34h0C744.66,468.71,744.35,468.94,744,468.72Z"/><path class="cls-19" d="M733.77,457.91l-2.93-1.69a1.66,1.66,0,0,1-.7-1.33h0c0-.51.31-.75.7-.53l2.93,1.69a1.69,1.69,0,0,1,.69,1.34h0C734.46,457.9,734.15,458.14,733.77,457.91Z"/><path class="cls-18" d="M730.25,446.7,723,442.49a1.68,1.68,0,0,1-.69-1.33h0c0-.51.31-.75.69-.53l7.29,4.21a1.66,1.66,0,0,1,.7,1.33h0C731,446.68,730.64,446.92,730.25,446.7Z"/><path class="cls-15" d="M734.88,449.37l-2-1.18a1.68,1.68,0,0,1-.69-1.33h0c0-.51.31-.75.69-.53l2,1.18a1.66,1.66,0,0,1,.7,1.33h0C735.58,449.36,735.27,449.59,734.88,449.37Z"/><path class="cls-49" d="M751.43,485.53l-.09,0-47.11-27.18a.19.19,0,0,1-.06-.25.18.18,0,0,1,.25-.07l47.1,27.18a.2.2,0,0,1,.07.26A.22.22,0,0,1,751.43,485.53Z"/><path class="cls-4" d="M692,555.42l8-2c5.4-4.39,8.44-3.46,10.92-2l.71.4c2.47,1.44,2.16,4-.7,5.61l-12.23,9.72a8.08,8.08,0,0,1-9-.88s-1.36-1.23-.39-6.43C689.94,556.85,689.75,556.74,692,555.42Z"/><path class="cls-40" d="M700.07,555.2c.33,3.87-9.08,4.67-9.41.8l-1.08-12.57,9.41-.81Z"/><path class="cls-50" d="M644.56,505.72s30.76-12.63,45-9.39S699.7,550,699.7,550c-2.28,3.54-7.62,3.33-10.31.23l-13.54-35.42L640,537.8l-11.85-26Z"/><path class="cls-4" d="M713,564.47l10.18-.36c6-1.38,7.06-1.76,9.21.13l.61.53c2.15,1.89.5,6.85-2.63,7.91l-13,4.58a8.07,8.07,0,0,1-8.66-2.62s-1.1-1.48.88-6.38C710.68,565.46,710.51,565.32,713,564.47Z"/><path class="cls-40" d="M720.24,565.55c.33,3.86-9.08,4.67-9.41.8l-1.07-12.58,9.41-.8Z"/><path class="cls-51" d="M662,529.12s30.14-27.75,44.41-24.5,13.52,55.71,13.52,55.71c-2.29,3.54-7.62,3.33-10.32.23L696,525.14l-35.89,23-11.86-26Z"/><rect class="cls-15" x="715.18" y="520.7" width="4.79" height="65.58" rx="2.02" transform="translate(1508.61 995.65) rotate(171.56)"/><path class="cls-15" d="M606.13,591.68h0a2.31,2.31,0,0,1-1.94-2.63l10.87-73.31a2.32,2.32,0,0,1,2.62-2h0a2.32,2.32,0,0,1,2,2.63l-10.87,73.31A2.32,2.32,0,0,1,606.13,591.68Z"/><path class="cls-15" d="M665.42,621.65h0A2.47,2.47,0,0,1,663.1,619l5.22-86.4a2.49,2.49,0,0,1,2.62-2.33h0a2.49,2.49,0,0,1,2.33,2.62L668,619.33A2.46,2.46,0,0,1,665.42,621.65Z"/><rect class="cls-40" x="687.3" y="467.91" width="7.64" height="12.38" rx="3.22" transform="translate(576.96 1304.4) rotate(-116.62)"/><path class="cls-34" d="M623.76,519.86c2.44-13.4,10.52-22.39,8.31-40.89,0-25.63,5.25-39.7,18.79-35.8l3.59,1.4a26.66,26.66,0,0,1,5.3,2.05c17.86,9.2,26.52,11.34,23.19,31.07l-1.13,35.92C681.81,536.88,622.52,547.22,623.76,519.86Z"/><path class="cls-50" d="M667.59,472.25,674.21,527c1.14-.47,7-6.27,7.27-10.44.47-6.74.95-16.14.47-20.86C681,486.29,667.59,472.25,667.59,472.25Z"/><path class="cls-40" d="M673.67,479.75s6.9,38.35,20.29,32.89c13.21-5.39,19.79-15.39,26.54-20.07l-9.54-2.7s-11,10.1-17.26,6.65-2.62-17.08-13.63-25.8C665.5,459.19,673.67,479.75,673.67,479.75Z"/><path class="cls-34" d="M669.79,475.5l8.69,24.65c1.24,1.91,16.4-3.46,14.88-6.4-.27-.52-3.81-30.9-17.25-37.84C668,451.71,665.22,464.27,669.79,475.5Z"/><path class="cls-14" d="M670.5,452.28s-8.38-9.5-18.2-8.68C655.38,445.72,666.19,450.84,670.5,452.28Z"/><path class="cls-4" d="M694,385a.19.19,0,0,1-.16-.09.18.18,0,0,1,.07-.25l2.16-1.27a.18.18,0,0,1,.19.31L694.1,385A.16.16,0,0,1,694,385Z"/><path class="cls-4" d="M691.31,386.61a.18.18,0,0,1-.1-.34l2.17-1.27a.19.19,0,0,1,.25.06.18.18,0,0,1-.07.25l-2.16,1.27A.16.16,0,0,1,691.31,386.61Z"/><path class="cls-15" d="M493.8,526.64h0a2.31,2.31,0,0,1-1.95-2.62l10.87-73.31a2.31,2.31,0,0,1,2.63-1.95h0a2.32,2.32,0,0,1,1.95,2.62L496.42,524.7A2.3,2.3,0,0,1,493.8,526.64Z"/><path class="cls-15" d="M547.12,557.82h0A2.47,2.47,0,0,1,545,555l12.7-85.63a2.47,2.47,0,0,1,2.81-2.08h0a2.47,2.47,0,0,1,2.09,2.81l-12.7,85.63A2.47,2.47,0,0,1,547.12,557.82Z"/><path class="cls-18" d="M667.54,562.3l-52.16-30.23c-4.9-2.83-7.6-8.46-7.6-8.46-1.83-4.2,2.54-7.24,7.43-4.42l47.86,28.18c4.89,2.82,6.74,5.77,5.95,9.28C669,556.65,673.75,565.5,667.54,562.3Z"/><path class="cls-39" d="M673.2,365.74h0a3.83,3.83,0,0,1-3.11-4.42l.78-4.52a3.83,3.83,0,0,1,4.42-3.11h0a3.83,3.83,0,0,1,3.11,4.42l-.78,4.52A3.83,3.83,0,0,1,673.2,365.74Z"/><ellipse class="cls-14" cx="793.19" cy="230.35" rx="1.63" ry="2.82" transform="translate(-7.82 431.81) rotate(-30.31)"/><path class="cls-14" d="M801.36,235.12c0,1.27-.89,1.78-2,1.15a4.41,4.41,0,0,1-2-3.46c0-1.27.89-1.78,2-1.14A4.39,4.39,0,0,1,801.36,235.12Z"/><path class="cls-14" d="M807.53,238.75c0,1.26-.9,1.78-2,1.14a4.41,4.41,0,0,1-2-3.46c0-1.27.89-1.78,2-1.14A4.44,4.44,0,0,1,807.53,238.75Z"/><path class="cls-25" d="M821,223.5l-32.49-18.76c-.73-.43-1.34-.09-1.34.75v24.37a3,3,0,0,0,1.34,2.29l6.39,3.69v9.26a1.94,1.94,0,0,0,.35,1c.22.31.82,1,1.45.81a3.57,3.57,0,0,0,1.2-.49c1.59-.9,5-2.88,7.71-4.43L821,250.91c.74.42,1.34.08,1.34-.75V225.79A2.92,2.92,0,0,0,821,223.5Z"/><ellipse class="cls-14" cx="796.79" cy="223.25" rx="2.04" ry="3.53" transform="translate(-2.51 437.33) rotate(-30.65)"/><ellipse class="cls-14" cx="804.75" cy="227.84" rx="2.04" ry="3.53" transform="translate(-3.74 442.03) rotate(-30.65)"/><ellipse class="cls-14" cx="812.71" cy="232.44" rx="2.04" ry="3.53" transform="translate(-4.97 446.73) rotate(-30.65)"/><path class="cls-52" d="M590.27,444.25,584.12,442a31.13,31.13,0,0,0-26.34,2.41l-35.94,21.07Z"/><path class="cls-52" d="M576,468.15l-6.17,43.19a5.72,5.72,0,0,1-4.09,4.7h0a5.45,5.45,0,0,1-6.89-6l6.27-41.84Z"/><path class="cls-36" d="M558.8,510a9.74,9.74,0,0,0,11.18-.38,8.36,8.36,0,0,1-1.45,5c-1.63,2.26-6.41,3-9.13-.65C558.59,512.85,558.6,511.53,558.8,510Z"/><path class="cls-53" d="M558.76,511.78v8.89a3,3,0,0,0,3.44,3.14c5.73-1,16.59-3.7,20-9.9,0,0,4.48-8.27-10.06-2.85a10.23,10.23,0,0,0-1.69.84C568.48,513.1,562.78,515.92,558.76,511.78Z"/><path class="cls-54" d="M531.42,476.38s-24.19-11.85-26.26-19.09c0,0-2.92-16,12.33-19.49Z"/><path class="cls-55" d="M516.37,466s12,35.5,63.65,2.71l-.44,41.18c-1.12,5.87-.71,9.92,4.73,7.46h0c4.9-2.22,5.29-2.29,6-7.62l6.35-49.56c1.15-8.56-3.86-18.76-12.08-16.12Z"/><path class="cls-53" d="M530.67,459.77c-5.29.62-10-3.8-10.29-9.71l-1.57-29.26.17-22.07c-.56-6.48.67-18.43,7.07-20.17,6.79-1.85,16.68,2.3,24.64,4.5,12.55,3.47,16.7,16.24,12.34,28.27l-3.11,14.5a50.26,50.26,0,0,0-3,17.2v7.08a7.46,7.46,0,0,1-6.67,7.36Z"/><path class="cls-36" d="M579,512.55a9.72,9.72,0,0,0,11.18-.38,8.35,8.35,0,0,1-1.45,5c-1.63,2.26-6.41,3-9.13-.64C578.77,515.41,578.78,514.09,579,512.55Z"/><path class="cls-56" d="M578.14,514.41v8.89a3,3,0,0,0,3.51,3.13c5.86-1,17-3.69,20.48-9.89,0,0,4.64-8.38-10.58-2.75a6.16,6.16,0,0,0-1.15.57C588.68,515.43,582.47,518.75,578.14,514.41Z"/><path class="cls-18" d="M555.21,497.27,503,467c-4.89-2.82-7.59-8.45-7.59-8.45-1.83-4.2,2.53-7.25,7.43-4.42l47.85,28.17c4.9,2.83,6.74,5.78,5.95,9.28C556.68,491.61,561.41,500.47,555.21,497.27Z"/><rect class="cls-15" x="599.99" y="457.46" width="4.79" height="65.58" rx="2.02" transform="translate(1270.19 886.78) rotate(171.56)"/><polygon class="cls-56" points="561.12 422.16 550.65 405.04 546.05 428.29 556.89 443.03 561.12 422.16"/><path class="cls-18" d="M495,456.91,486.39,401c-1.53-8.4,4.75-11.2,13.61-6.06l35.42,20.56a38.24,38.24,0,0,1,15.16,17.31l14.95,36.88c4.29,10.58-5,21-13.92,15.65Z"/><path class="cls-15" d="M600.68,474.87,564.4,497.08c-5.88,3.6-10.42,1.91-10.1-3.75l.31-5.44c.33-5.66,5.4-13.24,11.28-16.83l36.28-22.22c5.88-3.6,10.42-1.91,10.09,3.75L612,458C611.63,463.7,606.55,471.27,600.68,474.87Z"/><path class="cls-18" d="M607.35,522l-8.62-55.9c-1.54-8.41,4.74-11.2,13.6-6.06l35.43,20.56a38.2,38.2,0,0,1,15.15,17.3l15,36.89c4.29,10.57-5,21-13.91,15.65Z"/><path class="cls-15" d="M713,539.9l-36.28,22.22c-5.88,3.59-10.42,1.91-10.09-3.76l.31-5.43c.32-5.67,5.4-13.24,11.27-16.84l36.28-22.21c5.88-3.6,10.42-1.91,10.1,3.75l-.32,5.44C724,528.73,718.89,536.31,713,539.9Z"/><path d="M529.77,353.75a.31.31,0,0,0,0-.62.31.31,0,0,0,0,.62Z"/><path class="cls-36" d="M535.51,378.67s4.06,8.32,11,3Z"/><polygon class="cls-36" points="548.2 378.58 546.44 381.7 535.54 378.69 536.36 373.51 548.2 378.58"/><path class="cls-57" d="M548.33,378.55s-7-2.45-12.42-11.07l-.74,3.33,11.62,10.24Z"/><path d="M558.9,354.84c-1.19,2.36-5.25,7.45-10,9a6.75,6.75,0,0,1-5.53-.74c-2.31-1.39-6-3-3.91,2.8,0,0,4.91,10.68-2.32,10.16a6.35,6.35,0,0,1-3.48-1.26c-3.83-2.89-8.82-10.23-3.07-23.9,0,0,15.35-11.64,28,1.94A1.79,1.79,0,0,1,558.9,354.84Z"/><path class="cls-41" d="M671,418.1a4,4,0,0,0-2.72,3.62l-.25,5.07c-.12,1.21-1.14,2.33-2.13,1.64s-2.73-.73-3,1.88c-.21,1.81.46,2.69,1.31,4.42,1.31,2.68-1.39,8.61-9.89,6.77a4.15,4.15,0,0,1-2.14-1.19c-2.57-2.74-9.24-11.72-1.75-25a8.57,8.57,0,0,1,5.11-4c3-.84,13.41.24,17,1.5a2.26,2.26,0,0,1,1.67,1.84C674.19,414.91,675.06,416.78,671,418.1Z"/><path class="cls-18" d="M744.66,233.08,723.94,222a2.12,2.12,0,0,0-2.18-.09h0l-3.54,1.86a27.51,27.51,0,0,1,2.36,4.2l-.11,17.48a7,7,0,0,0,3.22,5.75l16.89,9c1.56,2.47,2.62,4.09,2.62,4.09l2.27-1.17,1.19-.61c.8-.49,1-1.21,1-2.51l.14-21.16A7,7,0,0,0,744.66,233.08Z"/><path class="cls-15" d="M740.9,264.23l-20.78-11.11a7,7,0,0,1-3.19-5.74l.14-21.16c0-2.22,1.47-3.24,3.25-2.29L741.09,235a7,7,0,0,1,3.2,5.74l-.14,21.16C744.13,264.16,742.68,265.19,740.9,264.23Z"/><polyline class="cls-58" points="726.02 237.75 719.13 238.53 726.02 247.27"/><polyline class="cls-58" points="734.28 252.04 741.17 251.26 734.28 242.52"/><line class="cls-58" x1="731.53" y1="240.93" x2="728.77" y2="248.86"/><path class="cls-18" d="M840.64,291.46l-20.71-11.12a2.12,2.12,0,0,0-2.18-.09h0l-3.53,1.86a27,27,0,0,1,2.35,4.2l-.11,17.48a7,7,0,0,0,3.23,5.75l16.88,9c1.56,2.47,2.62,4.09,2.62,4.09l2.27-1.17,1.2-.61c.79-.49,1-1.21,1-2.51l.14-21.16A7,7,0,0,0,840.64,291.46Z"/><path class="cls-15" d="M836.88,322.61,816.11,311.5a7,7,0,0,1-3.2-5.74l.14-21.16c0-2.22,1.47-3.24,3.25-2.29l20.77,11.11a7,7,0,0,1,3.2,5.74l-.14,21.16C840.12,322.54,838.66,323.57,836.88,322.61Z"/><polyline class="cls-58" points="822 296.13 815.11 296.92 822 305.65"/><polyline class="cls-58" points="830.26 310.43 837.15 309.64 830.26 300.9"/><line class="cls-58" x1="827.51" y1="299.31" x2="824.75" y2="307.24"/><g class="cls-44"><path class="cls-38" d="M772.88,513l-13.5-7.8c-2.68-1.54-2.34-4.27.75-6.05l10.45-6c3.09-1.78,7.81-2,10.49-.43l13.5,7.8c2.67,1.54,2.33,4.26-.75,6.05l-10.46,6C780.27,514.37,775.56,514.57,772.88,513Z"/></g><polygon class="cls-59" points="791.69 502.87 752.91 502.2 752.91 498.29 791.69 498.85 791.69 502.87"/><path class="cls-59" d="M768.2,512.82,754.7,505c-2.68-1.54-2.34-4.26.75-6l10.45-6c3.09-1.79,7.81-2,10.49-.44l13.5,7.8c2.67,1.54,2.33,4.27-.76,6.05l-10.45,6C775.59,514.17,770.88,514.36,768.2,512.82Z"/><path class="cls-35" d="M768.2,508.45l-13.5-7.79c-2.68-1.55-2.34-4.27.75-6.06l10.45-6c3.09-1.78,7.81-2,10.49-.43l13.5,7.79c2.67,1.55,2.33,4.27-.76,6.05l-10.45,6C775.59,509.8,770.88,510,768.2,508.45Z"/><path class="cls-14" d="M765.2,502.62a1.57,1.57,0,0,1-1.13-.49,1.58,1.58,0,0,1-.37-1.51l2.3-7.9a1.57,1.57,0,1,1,3,.87L767.45,499l16-3.64a1.56,1.56,0,0,1,.69,3.05l-18.63,4.22A1.39,1.39,0,0,1,765.2,502.62Z"/><path class="cls-40" d="M704.1,467.78s6.33.22,5.37-1.81c-.25-.51-1.44-.62-2.93-.56a1.18,1.18,0,0,0,.59-1.26s-.91,0-2,0a1.16,1.16,0,0,0,.16-.85,22,22,0,0,0-4.72.31A11.87,11.87,0,0,0,697,465c-1.61.94-2,1.85-5.28,5.44l.48.22a2.13,2.13,0,0,0-.56,2.34l0,.09a3.27,3.27,0,0,0,3.57,2.06l3.28-.52,4.27-2.48s2.64-.57,2.48-1.69-3.06.12-3.06.12l-2.14.93c-.64.18-.92.28-1.2-.31-.17-.34.22-.72.21-.8S704.1,467.78,704.1,467.78Z"/><polygon class="cls-60" points="698.16 468.94 703.15 465.64 706.54 465.52 706.53 465.31 703.08 465.44 698.04 468.77 698.16 468.94"/><path class="cls-60" d="M696.63,467.55l5-3.29c1.24,0,3.25-.07,3.44,0l.08-.19c-.24-.1-3,0-3.56,0h0l-5,3.33Z"/><path class="cls-40" d="M731.07,482a1.18,1.18,0,0,1-.06,1.13h0c-.62,1.05-2.73,1.62-6.27,1.7-.12,0-.56.21-1.17.48a6.2,6.2,0,0,1,3.34,1.18c3.3,2.69,4.26,4.56,4.29,4.64l.06.1,0,.11a.9.9,0,0,1-.69.52c-1,.2-2.58-.76-4.69-2.88a3.17,3.17,0,0,0-2.52-.74,3.38,3.38,0,0,1,1.82.74,42.87,42.87,0,0,1,4.12,4.69l.1.13-.08.15a.87.87,0,0,1-.67.43,1.54,1.54,0,0,1-.56,0l.07.07.2.18-.19.19c-1.37,1.44-3,0-4.16-1l-.44-.39a2.43,2.43,0,0,0-2.18-.65,15.47,15.47,0,0,0-4,2c-.14.13-1.51.92-1.7,1.05-3.54,2.48-6.6-1.91-4.75-5.89,4.1-2.53,9.45-7.13,12.29-7.3l0,0,7.75-.71Z"/><polygon class="cls-60" points="719.5 490.98 722.72 490.1 727.66 494.29 727.8 494.12 722.77 489.86 719.44 490.77 719.5 490.98"/><rect class="cls-60" x="720.98" y="488.4" width="2.34" height="0.22" transform="translate(-80.02 146.96) rotate(-11.01)"/><path class="cls-36" d="M591.12,396l5.31-14.19s9.15,2.47,2.38,17.58Z"/><polygon class="cls-50" points="591.9 393.99 571.73 382.3 583.6 347.6 603.77 359.28 591.9 393.99"/><polygon class="cls-25" points="581.39 376.35 577.17 373.72 579.62 366.18 583.84 368.81 581.39 376.35"/><polygon class="cls-14" points="586.55 379.58 582.34 376.95 583.94 372.01 588.15 374.65 586.55 379.58"/><polygon class="cls-18" points="591.88 382.9 587.66 380.27 590.87 370.38 595.09 373.01 591.88 382.9"/><path class="cls-18" d="M596.56,364.42l-2.12-1.36h0L584,356.38a.67.67,0,0,0-1,.28.82.82,0,0,0,.27,1.06l2.12,1.37h0l10.39,6.67a.68.68,0,0,0,1-.28A.84.84,0,0,0,596.56,364.42Z"/><path class="cls-14" d="M593,366.72a.54.54,0,0,0-.21-.62L583,359.83a.67.67,0,0,0-1,.28.83.83,0,0,0,.27,1.06l2.13,1.36a0,0,0,0,0,0,0l7.36,4.72a.86.86,0,0,0,1.17-.55Z"/><path class="cls-14" d="M585.54,366.08a.44.44,0,0,0-.19-.48l-3.4-2.18a.66.66,0,0,0-1,.27.83.83,0,0,0,.26,1.07l2.13,1.36,0,0,1.26.8a.58.58,0,0,0,.8-.41Z"/><path class="cls-53" d="M551.42,397.17s10.31,47.62,30.91,29c14.49-13.1,15.64-21.06,16.77-25.4a2.94,2.94,0,0,0-1.91-3.49l-4.05-1.41a2.84,2.84,0,0,0-3.5,1.44C587,402.7,582,417.44,576,414.11c-7.49-4.19-12.21-23.26-15.91-24.81S551.42,397.17,551.42,397.17Z"/><path class="cls-36" d="M594.76,393.22l-4.26-5.73s-4.27-1.73,1.06,7.86Z"/><path class="cls-61" d="M812.79,370.14s4.22-1.69,6.7-8.4l.4,1.27a11.2,11.2,0,0,1-6.58,7.53Z"/><path class="cls-62" d="M815.22,359.72s5.77-10.07,3.24-1.26a4.15,4.15,0,0,1-.46,1.06l-.2,1.94Z"/><path class="cls-31" d="M815.1,467.88a11.14,11.14,0,0,1-10.09,0c-2.79-1.62-2.8-4.22,0-5.83a11.15,11.15,0,0,1,10.08,0C817.86,463.68,817.87,466.28,815.1,467.88Z"/><polygon class="cls-31" points="815.98 465.1 802.91 465.05 802.91 453.41 815.98 453.52 815.98 465.1"/><path class="cls-20" d="M813.28,453.46v11.25c0,1.83-.91,2.15-2.31,3a9.45,9.45,0,0,1-2.92,1.23,10.83,10.83,0,0,0,7.14-1.07c1.39-.82,2.07-1.45,2.06-3.28v-.27l0-10.74Z"/><path class="cls-53" d="M815.1,456.44a11.14,11.14,0,0,1-10.09,0c-2.79-1.61-2.8-4.21,0-5.82a11.15,11.15,0,0,1,10.08,0C817.86,452.23,817.87,454.84,815.1,456.44Z"/><path class="cls-56" d="M814.25,455.87a9.19,9.19,0,0,1-8.33,0c-2.31-1.33-2.32-3.48,0-4.81a9.25,9.25,0,0,1,8.34,0C816.54,452.39,816.55,454.54,814.25,455.87Z"/><path class="cls-27" d="M814.23,453.13a9.22,9.22,0,0,0-8.34,0,1.37,1.37,0,1,0,0,2.73,9.19,9.19,0,0,0,8.33,0,3.56,3.56,0,0,0,1.43-1.36A3.8,3.8,0,0,0,814.23,453.13Z"/><path class="cls-27" d="M805.89,455.87a3.59,3.59,0,0,1-1.42-1.36,3.19,3.19,0,0,1,.68-.83,9.09,9.09,0,0,1,5.79.86,3.75,3.75,0,0,1,1.43,1.35,2.06,2.06,0,0,1,.25.64,9.94,9.94,0,0,1-6.73-.66Z"/><path class="cls-18" d="M814.58,458.6c.56.29,1.13.56,1.67.89.29.18.69.41.73.73a24.28,24.28,0,0,1,.08,3.41c0,.55,0,1.09,0,1.64,0,.15-.07.4,0,.52s-.3.16.11,0c-.1,0,.11,0,0,0a11.36,11.36,0,0,1-1.84-.85c-.8-.41-1.51.8-.7,1.21.37.19.73.38,1.11.56a4,4,0,0,0,1.42.49c1.55,0,1.39-2,1.41-3a32.11,32.11,0,0,0-.1-4.16c-.16-1.43-2-2-3.07-2.63-.8-.43-1.51.78-.71,1.21Z"/><path class="cls-63" d="M806.83,436.18l-8.55-5.75c-.11-.07-.09-.18.05-.25h0a.49.49,0,0,1,.44,0l8.56,5.75c.11.07.08.19-.05.25h0A.51.51,0,0,1,806.83,436.18Z"/><path class="cls-63" d="M803.94,438l-8.55-5.75c-.11-.07-.09-.19.05-.25h0a.46.46,0,0,1,.44,0l8.56,5.75c.11.07.08.18-.05.25h0A.51.51,0,0,1,803.94,438Z"/><path class="cls-63" d="M801.06,439.73,792.5,434c-.11-.07-.09-.18,0-.25h0a.52.52,0,0,1,.44,0l8.56,5.75c.11.08.08.19,0,.26h0A.48.48,0,0,1,801.06,439.73Z"/><path class="cls-63" d="M798.17,441.51l-8.56-5.75c-.11-.07-.09-.19,0-.25h0a.48.48,0,0,1,.44,0l8.56,5.75c.11.07.09.18,0,.25h0A.48.48,0,0,1,798.17,441.51Z"/><path class="cls-63" d="M795.28,443.29l-8.56-5.75c-.11-.08-.09-.19,0-.26h0a.48.48,0,0,1,.44,0l8.56,5.74c.11.08.09.19,0,.26h0A.52.52,0,0,1,795.28,443.29Z"/><path class="cls-38" d="M793.72,433.59l-12.06-7c-.13-.08-.12-.22,0-.31l5.78-3.34a.63.63,0,0,1,.55,0l12.05,7c.14.08.12.22,0,.31l-5.78,3.34A.61.61,0,0,1,793.72,433.59Z"/><path class="cls-53" d="M769.55,444.76l-20.14-11.63a.37.37,0,0,1,0-.64L777,416.55a.37.37,0,0,1,.38,0l20.13,11.63a.37.37,0,0,1,0,.64l-27.6,15.94A.35.35,0,0,1,769.55,444.76Z"/><rect class="cls-53" x="749.25" y="431.88" width="0.68" height="1.02"/><rect class="cls-53" x="797.02" y="427.81" width="1.02" height="0.68"/><path class="cls-53" d="M769.55,444.08l-20.14-11.63a.37.37,0,0,1,0-.64L777,415.87a.37.37,0,0,1,.38,0l20.13,11.62a.38.38,0,0,1,0,.65l-27.6,15.94A.4.4,0,0,1,769.55,444.08Z"/><path class="cls-53" d="M789.67,456.34l-20.14-11.63a.37.37,0,0,1,0-.64l27.61-15.94a.35.35,0,0,1,.37,0l20.14,11.62a.38.38,0,0,1,0,.65L790,456.34A.4.4,0,0,1,789.67,456.34Z"/><rect class="cls-53" x="769.58" y="443.73" width="0.68" height="0.68"/><rect class="cls-53" x="817.01" y="439.33" width="1.02" height="0.34"/><path class="cls-53" d="M789.67,455.65,769.53,444a.38.38,0,0,1,0-.65l27.61-15.94a.4.4,0,0,1,.37,0l20.14,11.63a.37.37,0,0,1,0,.64L790,455.65A.35.35,0,0,1,789.67,455.65Z"/><path class="cls-35" d="M756.41,434.37l13.12,8.46,8-6.33S762,430.2,756.41,434.37Z"/><path class="cls-51" d="M769.64,442.61c-1.13-4.28-9-6-18.06-10.43-.29-.17-.25-.46.09-.66l24.49-14.14a1.26,1.26,0,0,1,1.13,0c11.21,3.32,18.2,6.77,18.06,10.43Z"/><path class="cls-14" d="M769.64,442.61c.83-5-7.12-7.54-15.17-12.66-.26-.2-.2-.51.12-.7l23.69-14.13a1,1,0,0,1,1.05,0c10.15,4.06,16.4,8.58,16,12.51Z"/><path class="cls-63" d="M789.33,422.49l-8.68-5.56c-.11-.07-.09-.18,0-.25h0a.49.49,0,0,1,.44,0l8.69,5.56c.11.07.09.18-.05.25h0A.49.49,0,0,1,789.33,422.49Z"/><path class="cls-63" d="M786.48,424.33l-8.68-5.56c-.11-.07-.09-.18,0-.25h0a.51.51,0,0,1,.45,0l8.68,5.56c.11.07.09.18,0,.25h0A.51.51,0,0,1,786.48,424.33Z"/><path class="cls-63" d="M783.63,426.17,775,420.62c-.11-.08-.09-.19,0-.26h0a.51.51,0,0,1,.45,0l8.68,5.56c.11.07.09.18,0,.25h0A.51.51,0,0,1,783.63,426.17Z"/><path class="cls-63" d="M780.78,428l-8.68-5.55c-.11-.07-.09-.19,0-.26h0a.49.49,0,0,1,.44,0l8.68,5.56c.11.07.09.18,0,.25h0A.51.51,0,0,1,780.78,428Z"/><path class="cls-63" d="M777.94,429.85l-8.69-5.55c-.11-.07-.09-.19,0-.26h0a.49.49,0,0,1,.44,0l8.68,5.56c.11.07.09.18,0,.25h0A.49.49,0,0,1,777.94,429.85Z"/><path class="cls-63" d="M775,432.39l-8.68-5.55c-.11-.07-.09-.18,0-.25h0a.49.49,0,0,1,.44,0l8.69,5.55c.11.07.09.19,0,.26h0A.49.49,0,0,1,775,432.39Z"/><path class="cls-63" d="M772.17,434.23l-8.68-5.55c-.11-.07-.09-.18,0-.25h0a.51.51,0,0,1,.45,0l8.68,5.55c.11.07.09.19,0,.26h0A.48.48,0,0,1,772.17,434.23Z"/><path class="cls-63" d="M769.32,436.08l-8.68-5.56c-.11-.07-.09-.18,0-.25h0a.51.51,0,0,1,.45,0l8.68,5.55c.11.07.09.19,0,.26h0A.51.51,0,0,1,769.32,436.08Z"/><path class="cls-35" d="M769.53,442.83,780.2,448S772.69,439.28,769.53,442.83Z"/><path class="cls-14" d="M769.64,442.61a4.82,4.82,0,0,1,4.48.73c2,1.65,14.75,11.23,14.75,11.23l25.91-14.82s-13.85-13.43-19.43-12Z"/><path class="cls-63" d="M792.3,445.76,783.75,440c-.11-.07-.09-.18,0-.25h0a.49.49,0,0,1,.44,0l8.56,5.75c.11.07.08.19,0,.25h0A.48.48,0,0,1,792.3,445.76Z"/><path class="cls-63" d="M789.41,447.54l-8.55-5.75c-.11-.07-.09-.19,0-.25h0a.49.49,0,0,1,.44,0l8.56,5.75c.11.07.08.18,0,.25h0A.51.51,0,0,1,789.41,447.54Z"/><path class="cls-63" d="M786.53,449.31,778,443.57c-.11-.08-.09-.19,0-.26h0a.52.52,0,0,1,.44,0l8.56,5.75c.11.08.08.19,0,.26h0A.48.48,0,0,1,786.53,449.31Z"/><path class="cls-34" d="M778.17,446.73c3.19-2.38,11.78-8,16.33-10.91a.26.26,0,0,0-.14-.47l-3.2,0a.26.26,0,0,1-.24-.36l.9-2.14a.26.26,0,0,0-.36-.33c-1.89,1.11-7.21,6-14.85,12.26a1.27,1.27,0,0,0,0,2h0A1.26,1.26,0,0,0,778.17,446.73Z"/><path class="cls-64" d="M790.08,436a1,1,0,0,0,.42.92h0c.87.68,2.84.47,5.85-.63.11,0,.55,0,1.15,0a5.58,5.58,0,0,0-2.43,2.1,14.55,14.55,0,0,0-2.1,5.32v.11l.07.08a.83.83,0,0,0,.75.2c.91-.15,1.93-1.49,3-4a2.8,2.8,0,0,1,1.88-1.46,3,3,0,0,0-1.3,1.22,40.48,40.48,0,0,0-1.93,5.31l0,.14.11.1a.78.78,0,0,0,.72.15,1.52,1.52,0,0,0,.45-.21l0,.08-.11.22.22.1c1.63.76,2.52-1,3.17-2.24l.25-.47a2.2,2.2,0,0,1,1.62-1.27,13.83,13.83,0,0,1,4,.38c.16.06,1.58.28,1.78.32,3.81.93,4.95-3.78,2.08-6.53-4.29-.79-10.32-2.9-12.77-2.12h0l-6.78,1.95Z"/><polygon class="cls-62" points="802.78 439.77 799.78 440.09 796.99 445.24 796.81 445.14 799.65 439.9 802.76 439.57 802.78 439.77"/><rect class="cls-62" x="798.67" y="438.45" width="2.12" height="0.2" transform="translate(-65.41 149.7) rotate(-10.28)"/><path class="cls-27" d="M685,368.9a1.08,1.08,0,0,0,.43.93h0c.87.68,2.84.47,5.85-.63.11,0,.54,0,1.14,0a5.57,5.57,0,0,0-2.43,2.1,15,15,0,0,0-2.1,5.32v.1l.08.08a.81.81,0,0,0,.75.21c.91-.15,1.93-1.49,3-4a2.82,2.82,0,0,1,1.87-1.45,3.05,3.05,0,0,0-1.29,1.22,37.21,37.21,0,0,0-1.93,5.31l0,.14.11.1a.76.76,0,0,0,.71.15,1.57,1.57,0,0,0,.46-.21l0,.08-.1.22.22.1c1.63.76,2.52-1,3.17-2.24l.24-.47a2.17,2.17,0,0,1,1.63-1.27,13.83,13.83,0,0,1,4,.38c.16.06,1.58.27,1.78.32,3.81.93,4.94-3.78,2.08-6.53-4.29-.79-10.32-2.91-12.77-2.12h0L685,368.75Z"/><polygon class="cls-65" points="697.65 372.65 694.65 372.97 691.86 378.12 691.68 378.02 694.53 372.77 697.63 372.45 697.65 372.65"/><rect class="cls-65" x="693.55" y="371.33" width="2.12" height="0.2" transform="translate(-55.12 129.87) rotate(-10.28)"/><path class="cls-14" d="M820,363.72s-2.67,9.76-7.16,6.42l-1.07.95s6.85,4.46,9.77-6.68Z"/><path class="cls-66" d="M832.45,373.07S823.6,384,834.3,418.7l-25.42,14.35c-3,1.34-4.29,5.53-2.86,9.09l.54.36c.55,1.37,1.32,1.68,2.47,1.19l34.54-13.36c2.41-1,3.93-3.85,3.76-7C846.64,411,843.83,380.65,832.45,373.07Z"/><ellipse class="cls-67" cx="621.55" cy="410.55" rx="6.63" ry="2.84"/><path class="cls-68" d="M627.64,401.51s11.37,1.93.07,9l.11-2.17s6.28-3.67-.11-5Z"/><rect class="cls-67" x="614.92" y="399.18" width="13.26" height="11.36"/><path class="cls-68" d="M616.93,401s-.8,10.74.06,11.6c0,0-2-.54-2.07-2.07,0,0-.1-9.2-.06-9.65a8.32,8.32,0,0,0,0-1.3Z"/><ellipse class="cls-53" cx="621.55" cy="399.18" rx="6.63" ry="2.84"/><ellipse class="cls-27" cx="621.55" cy="399.85" rx="5.66" ry="1.52"/><path class="cls-35" d="M824.62,336.94s-1.68,7.7,6.24,13.29c0,0-6.41,7.52-2.22,14.51,0,0-8.38,9.78-3.73,14.44,0,0-2.79,5.59,0,9.78,0,0,4.66-.93,5.6-8.85,0,0,7-4.66,3.26-13.51,0,0,5.59-9.32,1.86-14.44C835.63,352.16,837.2,335.55,824.62,336.94Z"/><path class="cls-66" d="M801.48,364.23s-21.28,14.45-14.94,46.85l8.39,4.86,1.62-21.49Z"/><path class="cls-25" d="M801.48,364.23s-12.91,14.45-6,44.29l7.67-42.95Z"/><path class="cls-64" d="M819.49,361.74c2.21-5.38,1.65-18.15-.93-22.71-2.84-5-9.24-5.62-11.72-4.91-16.29,4.67-10.47,20.2-8.34,26.39s7.32,12.45,10.44,11.87a8.65,8.65,0,0,0,3.85-2.24c2.25,2.07,4.58-.24,6.16-2.58a6.15,6.15,0,0,0,.57-5.72Z"/><path class="cls-35" d="M799.59,352.66a38,38,0,0,0,7.87.41c4.5-.27,6.07,1.86,6.87,5.89.3,1.52,4.81-.59,4.81-.54.86,5.38,0,8.58,3.74,4.22s6.75-11.27,4.28-20.56c-.4-1.5,2.24-2.09.85-3-6.19-3.93-22-13.88-33.41,4C792.14,347,794.73,351.92,799.59,352.66Z"/><path class="cls-62" d="M812.79,370.14s6.44-7.41,6.26-12.19l.49,3.92s-2.74,7.37-6.23,8.67Z"/><path class="cls-47" d="M823,355.31c-.19-2.43-1.63-4.38-3.4-4.79a24.12,24.12,0,0,0-4.93-8.45c-4.53-5.47-13.77-5.51-15.75-4.51a3.71,3.71,0,0,0-2.19,2.52c15-3.18,19.4,9,20.09,11.22a5.46,5.46,0,0,0-1.54,4.49c.22,2.82,2.13,5,4.27,4.87S823.26,358.13,823,355.31Z"/><path class="cls-69" d="M824.56,337s5.91,3.27,3.44,10.61"/><ellipse class="cls-64" cx="715.27" cy="301.25" rx="3.13" ry="2.17" transform="translate(78.81 745.42) rotate(-57.75)"/><path class="cls-35" d="M683.39,359a5.45,5.45,0,0,0-2.28-3L637,331.48a1.61,1.61,0,0,0-1.07-.19l-2.2,1.23.6.8,7.41,24.89a5.49,5.49,0,0,0,2.28,3l42.51,23.51,1.45,1.47.18.94,2.26-1.43Z"/><path class="cls-34" d="M685.72,389,641.2,363.31c-1-.59-.31-3.09.86-3.76l3.07.33c1.17-.68-.69.39.32,1l40.72,22.78c1,.58.25.58-.92,1.26l2.83,2.56C688.59,389.52,686.73,389.53,685.72,389Z"/><path class="cls-52" d="M687.64,387.57l-45.37-25.91a5.66,5.66,0,0,1-2.68-3.55l-6-24.44c-.29-1.11.26-1.58,1.23-1l45,24.86a5.48,5.48,0,0,1,2.27,3l6.82,26C689.15,387.64,688.61,388.11,687.64,387.57Z"/><path class="cls-14" d="M661.59,363.32a4.48,4.48,0,0,1-2-.67c-1.94-1.06-3.81-3.1-4.19-4.53a1.16,1.16,0,0,1,.28-1.3c.54-.41,1.56-.25,2.8.44,1.94,1.07,3.81,3.1,4.19,4.53.19.74,0,1.12-.29,1.3A1.21,1.21,0,0,1,661.59,363.32ZM656.42,357a.81.81,0,0,0-.5.13c-.24.18-.2.56-.13.84.35,1.33,2.13,3.24,4,4.26,1.26.7,2,.69,2.32.48s.2-.56.13-.85c-.35-1.33-2.13-3.24-4-4.26A4,4,0,0,0,656.42,357Z"/><path class="cls-4" d="M690.32,385.5a.18.18,0,0,1-.18-.13c-.06-.23-5.87-22.57-6.73-25.64a6.47,6.47,0,0,0-3.21-4.07l-43.29-23.91a.18.18,0,0,1,.18-.32l43.27,23.9a6.72,6.72,0,0,1,3.4,4.3c.87,3.08,6.68,25.42,6.74,25.65a.19.19,0,0,1-.14.22Z"/><path class="cls-34" d="M688.16,387.41a.15.15,0,0,1-.15-.12c-.06-.22-5.87-22.56-6.73-25.64a6.5,6.5,0,0,0-3.23-4.08l-43.29-23.91a.16.16,0,0,1,.16-.28l43.27,23.9a6.72,6.72,0,0,1,3.39,4.29c.87,3.08,6.68,25.42,6.74,25.64a.16.16,0,0,1-.12.2Z"/><polygon class="cls-55" points="646.75 365.1 642.54 362.66 642.56 360.09 646.76 362.54 646.75 365.1"/><polygon class="cls-55" points="682.83 386.03 678.63 383.59 678.64 381.02 682.85 383.47 682.83 386.03"/><path class="cls-31" d="M699.34,304.9s-6.46,12.65-7.26,33l5.06,3.4,3.84-35Z"/><path class="cls-27" d="M717.65,304.52c2.2-4.32,1.65-14.55-.94-18.19-2.84-4-9.23-4.51-11.71-3.94-16.29,3.74-10.47,16.18-8.34,21.14s7.32,10,10.44,9.51a9.58,9.58,0,0,0,3.85-1.8c2.24,1.66,4.58-.19,6.16-2.07a4.1,4.1,0,0,0,.57-4.58Z"/><path class="cls-70" d="M711,311.24s6.44-5.94,6.26-9.76l.49,3.14s-2.74,5.9-6.24,6.95Z"/><path class="cls-34" d="M697.4,294.19a37.33,37.33,0,0,0,7.87.42c4.5-.28,6.07,1.85,6.87,5.88.3,1.52,4.81-.58,4.81-.54.86,5.38,0,8.58,3.74,4.22s6.75-11.26,4.28-20.55c-.4-1.51-21.19-16.87-32.56,1C690,288.54,692.54,293.46,697.4,294.19Z"/><path class="cls-27" d="M740,348.86a10.94,10.94,0,0,1-.19,2.21A79.38,79.38,0,0,1,736.88,362a12.41,12.41,0,0,1-8.36,7.7l-24.58,5.72-1.17-6.85,22.64-8.76c3.24-2.11,3.35-3.93,2.75-7.75l-1.28-7.91,13-.56Z"/><path class="cls-20" d="M723.89,323.78c-1.63,7.27-2.62,16.87,1.14,23.43l16.36-1.95s.5-13.47-6.73-24C731.55,316.68,725.14,318.24,723.89,323.78Z"/><path d="M532.38,349.41s-17.15-7-18.14,29.84a9.37,9.37,0,0,1-5.91,9.27s18.25,5.37,21.44-35.08Z"/><path class="cls-56" d="M528.08,356.75a29.65,29.65,0,0,1,3.3-6.06,4.7,4.7,0,0,1,1-1.11,1.84,1.84,0,0,1,1.37-.4,7.21,7.21,0,0,0-2.28,2.22c-.62.88-1.11,1.83-1.65,2.76s-1,1.72-1.58,2.57c-.1.17-.29.35-.45.24a26,26,0,0,1,3.76-6.78,6.85,6.85,0,0,1,1-1.06,1.46,1.46,0,0,1,.67-.36.66.66,0,0,1,.69.26l-1,.57"/></g></g></g></svg>